<?xml version="1.0" encoding="utf-8"?>
<!-- Generator: Adobe Illustrator 24.0.0, SVG Export Plug-In . SVG Version: 6.00 Build 0)  -->
<svg version="1.1" id="Layer_1" xmlns="http://www.w3.org/2000/svg" xmlns:xlink="http://www.w3.org/1999/xlink" x="0px" y="0px"
	 viewBox="0 0 1000 500" style="enable-background:new 0 0 1000 500;" xml:space="preserve">
<style type="text/css">
	.st0{fill:url(#SVGID_1_);}
	.st1{fill:url(#SVGID_2_);}
	.st2{fill:url(#SVGID_3_);}
	.st3{fill:url(#SVGID_4_);}
	.st4{fill:url(#SVGID_5_);}
	.st5{fill:url(#SVGID_6_);}
	.st6{fill:url(#SVGID_7_);}
	.st7{fill:url(#SVGID_8_);}
	.st8{fill:url(#SVGID_9_);}
	.st9{fill:url(#SVGID_10_);}
	.st10{fill:url(#SVGID_11_);}
	.st11{fill:url(#SVGID_12_);}
	.st12{fill:url(#SVGID_13_);}
	.st13{fill:url(#SVGID_14_);}
	.st14{fill:url(#SVGID_15_);}
	.st15{fill:url(#SVGID_16_);}
	.st16{fill:url(#SVGID_17_);}
	.st17{fill:url(#SVGID_18_);}
	.st18{fill:url(#SVGID_19_);}
	.st19{fill:url(#SVGID_20_);}
	.st20{fill:url(#SVGID_21_);}
	.st21{fill:url(#SVGID_22_);}
	.st22{fill:url(#SVGID_23_);}
	.st23{fill:url(#SVGID_24_);}
	.st24{fill:url(#SVGID_25_);}
	.st25{fill:url(#SVGID_26_);}
</style>
<g>
	
		<linearGradient id="SVGID_1_" gradientUnits="userSpaceOnUse" x1="-590.5359" y1="2670.0166" x2="-590.5359" y2="5387.46" gradientTransform="matrix(0.7685 -0.6399 0.6399 0.7685 -665.6857 -2558.3816)">
		<stop  offset="0" style="stop-color:#519CAB"/>
		<stop  offset="1" style="stop-color:#5FBF91"/>
	</linearGradient>
	<path class="st0" d="M930.19,226.18c-1.18,3.06-2.53,6.47-5.96,8.8c-1.67-2.38-3.46-4.57-5.33-6.6c1.54-3.79,6.15-16.18,2.04-20
		c-0.3-0.27-0.76-0.26-1.04,0.04c-0.27,0.3-0.26,0.76,0.04,1.04c2.94,2.72-0.12,12.57-2.15,17.72c-2.41-2.5-4.95-4.71-7.55-6.67
		c1.97-3.16,1.8-7.75,1.62-11.59c-0.13-2.83-0.26-5.77,0.73-6.23c0.36-0.17,0.52-0.61,0.35-0.98c-0.18-0.37-0.61-0.53-0.98-0.36
		c-1.88,0.89-1.75,3.86-1.57,7.63c0.16,3.58,0.33,7.86-1.34,10.65c-3.18-2.3-6.43-4.22-9.65-5.79c-1.36-2.79-0.29-4.83,1.19-7.56
		c1.47-2.7,3.13-5.75,2.78-10.34c-0.03-0.4-0.39-0.71-0.79-0.67c-0.4,0.03-0.71,0.38-0.68,0.79c0.32,4.15-1.23,7-2.6,9.52
		c-1.28,2.36-2.47,4.63-1.78,7.39c-1.77-0.8-3.53-1.49-5.24-2.08c-0.65-4.71-2.46-8.09-3.83-10.63c-1.59-2.95-2.3-4.43-1.17-5.91
		c0.25-0.32,0.18-0.79-0.14-1.03c-0.32-0.25-0.78-0.19-1.03,0.14c-1.76,2.3-0.52,4.59,1.04,7.5c1.3,2.42,2.86,5.36,3.55,9.4
		c-2.68-0.84-5.25-1.42-7.62-1.77c-0.32-0.05-0.61-0.08-0.92-0.12c-4.5-3.68-5.05-7.18-5.53-10.57c-0.32-2.29-0.63-4.62-2.24-6.88
		c-0.23-0.33-0.69-0.41-1.02-0.18c-0.33,0.23-0.41,0.69-0.18,1.02c0,0.01,0.02,0.02,0.03,0.04c1.35,1.93,1.65,4,1.95,6.2
		c0.35,2.5,0.74,5.22,2.72,8.04c0.48,0.68,1.06,1.36,1.74,2.05c-2.35-0.19-4.55-0.17-6.57,0.03c-1.29-3.02-3.04-4.65-4.77-6.16
		c-2.38-2.07-4.62-4.03-5.21-10.08c-0.04-0.41-0.39-0.7-0.8-0.66c-0.4,0.04-0.7,0.4-0.66,0.8c0.36,3.68,1.31,6,2.51,7.72
		c0.97,1.38,2.09,2.36,3.2,3.32c1.59,1.39,3.09,2.78,4.23,5.25c-3.83,0.58-6.98,1.82-9.32,3.47c-3.82-3.08-5.3-6.3-6.5-8.95
		c-1.12-2.47-2.1-4.6-4.49-5.81c-0.36-0.18-0.8-0.04-0.99,0.32c-0.18,0.36-0.04,0.8,0.33,0.99c1.93,0.98,2.76,2.8,3.82,5.11
		c0.71,1.55,1.5,3.3,2.76,5.1c0.97,1.37,2.21,2.79,3.9,4.18c-1.58,1.38-2.69,2.97-3.28,4.65c-2.32-0.86-5.09-2.95-7.6-4.85
		c-3.41-2.59-6.1-4.63-8.03-4.23c-0.62,0.13-1.13,0.51-1.46,1.11c-0.14,0.26-0.11,0.56,0.04,0.78c0.06,0.09,0.14,0.16,0.24,0.22
		c0.35,0.2,0.8,0.07,1-0.28c0.16-0.29,0.33-0.36,0.48-0.39c1.27-0.27,4.23,1.98,6.84,3.96c2.75,2.09,5.57,4.17,8.12,5.06
		c0,0.01,0,0.02-0.01,0.03l-0.04,0.29c-0.17,1.77,0.09,3.58,0.68,5.47c-3.04,2.36-12.9,9.29-17.83,3.95
		c-0.27-0.3-0.74-0.32-1.04-0.04c-0.28,0.25-0.31,0.66-0.11,0.96c0.02,0.02,0.04,0.05,0.06,0.07c5.63,6.1,15.79-0.7,19.45-3.5
		c0.52,1.3,1.24,2.65,2.12,4.05c-2.21,1.75-3.1,4.86-3.94,7.91c-1.05,3.81-1.96,7.11-5.14,7.48c-0.4,0.05-0.69,0.41-0.65,0.82
		c0.02,0.13,0.06,0.24,0.13,0.34c0.15,0.21,0.41,0.34,0.69,0.31c4.17-0.48,5.3-4.58,6.39-8.55c0.79-2.86,1.55-5.56,3.3-7.05
		c0.09,0.13,0.14,0.24,0.23,0.37c1.44,2.06,3.21,4.18,5.13,6.36c-0.81,3.24-3.79,13.64-9.13,16.33c-0.36,0.18-0.51,0.62-0.33,0.98
		c0.01,0.03,0.03,0.06,0.06,0.09c0.2,0.29,0.6,0.4,0.93,0.23c5.47-2.75,8.53-12.14,9.65-16.31c1.18,1.31,2.39,2.64,3.63,4
		c0.61,0.67,1.26,1.38,1.89,2.07c-1.06,4.2-3.04,6.58-4.96,8.87c-2.27,2.7-4.41,5.24-4.34,10.25c0,0.15,0.05,0.29,0.13,0.41
		c0.13,0.19,0.36,0.31,0.61,0.31c0.4,0,0.73-0.34,0.72-0.74c-0.06-4.46,1.82-6.7,4-9.29c1.8-2.15,3.82-4.55,5.02-8.52
		c1.67,1.85,3.36,3.76,5.04,5.76c-1.97,2.87-9.81,14.55-9.49,19.02c0.01,0.14,0.06,0.26,0.13,0.37c0.15,0.21,0.39,0.33,0.66,0.31
		c0.4-0.03,0.71-0.38,0.68-0.79c-0.24-3.4,5.92-13.23,8.98-17.72c1.55,1.9,3.04,3.88,4.46,5.92c0,0.01-0.02,0.02-0.02,0.03
		c-0.79,4.67-3.95,16.87-9.08,17.21c-0.41,0.03-0.71,0.38-0.69,0.78c0.01,0.14,0.06,0.27,0.13,0.37c0.14,0.2,0.38,0.33,0.65,0.31
		c6.21-0.42,9.29-12.82,10.16-17.04c0.19,0.29,0.4,0.56,0.59,0.85l0.09,0.14l0.1,0.13c1.64,2.14,3.12,4.38,4.54,6.65
		c-4.2,4.72-5.06,9.25-5.62,12.34c-0.53,2.9-0.79,3.9-2.39,3.93c-0.41,0.01-0.73,0.34-0.72,0.75c0,0.15,0.05,0.29,0.13,0.41
		c0.14,0.19,0.36,0.32,0.62,0.31c2.89-0.05,3.32-2.41,3.81-5.14c0.55-3.01,1.29-7.02,4.97-11.3c1.78,2.93,3.43,5.86,4.94,8.73
		c-2.37,2.97-3.48,6.83-4.39,10.01c-1.14,3.99-1.93,6.43-3.8,6.43c-0.41,0-0.74,0.33-0.73,0.74c0,0.15,0.05,0.3,0.13,0.42
		c0.13,0.19,0.35,0.31,0.61,0.31c3.07-0.01,4.06-3.48,5.21-7.5c0.86-3,1.86-6.28,3.76-8.91c0.45,0.86,0.92,1.75,1.36,2.59
		c1.15,2.22,2.28,4.37,3.4,6.41c-3.96,4.03-4.74,8.77-5.27,12.04c-0.54,3.34-0.85,4.17-2.13,4.02c-0.41-0.04-0.77,0.24-0.81,0.65
		c-0.02,0.19,0.03,0.36,0.13,0.5c0.12,0.17,0.3,0.28,0.52,0.31c2.85,0.32,3.26-2.25,3.75-5.25c0.51-3.15,1.21-7.3,4.57-10.91
		c1.13,2,2.27,3.89,3.43,5.56c0.72,1.02,1.43,1.9,2.15,2.73c-0.92,2.52-2.14,4.3-3.36,5.98c-2.07,2.85-4.02,5.55-3.31,11.32
		c0.02,0.13,0.06,0.24,0.13,0.33c0.15,0.21,0.41,0.34,0.69,0.31c0.4-0.05,0.69-0.42,0.64-0.82c-0.64-5.2,0.98-7.44,3.04-10.28
		c1.12-1.54,2.35-3.26,3.31-5.63c1.74,1.77,3.52,3.02,5.39,3.8c0.89,2.97,3.31,12.35,0.55,18.81c-0.1,0.24-0.07,0.51,0.07,0.71
		c0.08,0.11,0.18,0.2,0.31,0.25c0.37,0.16,0.8-0.01,0.96-0.38c2.7-6.3,0.91-14.82-0.17-18.73l0.24,0.05c1.68,0.3,3.48,0.1,5.28-0.59
		c1.16,4.2,3.45,6.24,5.52,8.05c2.18,1.9,3.91,3.41,3.81,7.13c-0.01,0.17,0.04,0.32,0.13,0.44c0.13,0.18,0.34,0.31,0.58,0.31
		c0.41,0.01,0.75-0.31,0.75-0.71c0.13-4.41-2.03-6.29-4.3-8.28c-2.03-1.77-4.12-3.61-5.14-7.55c1.67-0.87,3.31-2.19,4.84-3.92
		c2.1,2.59,8.25,9.39,16.34,10.93c0.4,0.08,0.78-0.19,0.86-0.59c0.08-0.4-0.19-0.78-0.58-0.86c-7.8-1.49-13.89-8.45-15.66-10.65
		c1.03-1.34,2-2.86,2.86-4.62c3.57,2.14,7.75,2.11,11.51,2.07c3.29-0.04,6.13-0.07,7.49,1.45c0.27,0.3,0.73,0.33,1.04,0.06
		c0.3-0.27,0.32-0.73,0.05-1.04c-1.81-2.01-4.96-1.98-8.6-1.94c-3.61,0.04-7.63,0.08-10.9-1.95c1.06-2.43,1.94-5.2,2.55-8.36
		c0-0.01,0.01-0.03,0.01-0.04c4.42,1.4,8.46,0.49,11.79-0.26c2.77-0.63,4.96-1.12,6.31-0.06c0.32,0.25,0.78,0.19,1.03-0.13
		c0.25-0.32,0.2-0.78-0.13-1.03c-1.9-1.49-4.51-0.9-7.54-0.21c-3.19,0.72-7.08,1.59-11.21,0.23c0.5-2.93,0.76-6.2,0.72-9.72
		c2.56-0.5,5.42,0.31,8.2,1.13c3.76,1.11,7.66,2.26,10.65-0.14c0.32-0.26,0.36-0.71,0.11-1.04c-0.25-0.31-0.71-0.37-1.03-0.11
		c-2.39,1.92-5.75,0.93-9.31-0.12c-2.88-0.85-5.83-1.69-8.64-1.22c-0.08-2.19-0.27-4.45-0.6-6.78c2.63,0.45,5.95-0.08,9.22-0.63
		c3.38-0.57,6.88-1.15,8-0.12c0.3,0.27,0.76,0.25,1.04-0.05c0.27-0.3,0.26-0.77-0.05-1.04c-1.64-1.51-5.16-0.92-9.23-0.24
		c-3.24,0.54-6.79,1.13-9.22,0.54c-0.48-2.87-1.17-5.81-2.1-8.79c3.95,0.84,6.95-1.18,9.43-2.88c3.1-2.13,4.98-3.23,7.59-1.19
		c0.32,0.25,0.78,0.2,1.03-0.12c0.25-0.32,0.2-0.78-0.12-1.03c-3.58-2.81-6.5-0.81-9.33,1.13c-2.64,1.81-5.37,3.64-9.12,2.43
		c-0.93-2.72-2.08-5.46-3.45-8.18c2.31-1.28,3.99-2.77,5.48-4.13c2.68-2.45,4.62-4.22,8.98-3.14c0.4,0.1,0.79-0.14,0.89-0.54
		c0.1-0.4-0.14-0.79-0.54-0.89c-5.12-1.26-7.53,0.94-10.32,3.49c-1.41,1.29-3,2.71-5.15,3.91c-1.23-2.31-2.61-4.61-4.19-6.87
		c-0.11-0.16-0.2-0.28-0.3-0.42c3.79-2.59,5.27-6.36,6.47-9.46c1.3-3.35,2.14-5.26,4.41-5.57c0.4-0.05,0.68-0.43,0.63-0.83
		c-0.05-0.4-0.42-0.69-0.82-0.63C932.54,220.13,931.4,223.06,930.19,226.18z"/>
	
		<linearGradient id="SVGID_2_" gradientUnits="userSpaceOnUse" x1="224.499" y1="1976.4948" x2="224.499" y2="3145.145" gradientTransform="matrix(0.8993 -0.4374 0.4374 0.8993 -189.6281 -1737.97)">
		<stop  offset="0" style="stop-color:#519CAB"/>
		<stop  offset="1" style="stop-color:#5FBF91"/>
	</linearGradient>
	<path class="st1" d="M974.43,82.37c-0.51-1.61-1.56-2.88-2.99-3.63c0.33-1.08,0.62-2.18,0.87-3.28c0.01-0.02,0.03-0.03,0.04-0.05
		c0.01-0.03-0.01-0.06-0.01-0.1c0.03-0.13,0.06-0.26,0.08-0.4c0.01-0.02,0.04-0.03,0.05-0.06c0.01-0.04-0.01-0.08-0.01-0.12
		c0.06-0.27,0.12-0.54,0.17-0.81c0-0.01,0.02-0.01,0.02-0.02c0-0.02-0.01-0.03,0-0.04c0.37-2.03,0.6-4.1,0.65-6.22
		c-0.3,2.49-0.76,4.82-1.36,7.04c0,0,0,0-0.01,0.01c0,0,0,0.01,0,0.01c-0.35,1.29-0.75,2.52-1.19,3.72c-0.4-0.16-0.81-0.32-1.23-0.4
		c-2.99-0.57-5.1,1.2-6.72,3.95c-7.03,12.01-18.46,21.02-31.18,26.66c-3.47,1.55-5.3,5.44-4.15,8.88l0.03,0.08
		c0.71,2.14,2.56,3.69,4.95,4.14c1.56,0.3,3.2,0.1,4.73-0.58c15.36-6.81,27.29-18.28,35.79-32.78
		C974.09,86.44,975.05,84.38,974.43,82.37z"/>
	
		<linearGradient id="SVGID_3_" gradientUnits="userSpaceOnUse" x1="-2149.79" y1="-4552.1733" x2="-2149.79" y2="-3383.5232" gradientTransform="matrix(0.2725 0.9622 -0.9622 0.2725 -3069.4155 3680.4102)">
		<stop  offset="0" style="stop-color:#519CAB"/>
		<stop  offset="1" style="stop-color:#5FBF91"/>
	</linearGradient>
	<path class="st2" d="M568.64,442.94c1.68-0.21,3.11-1.03,4.1-2.3c1,0.52,2.03,0.99,3.08,1.43c0.02,0.01,0.02,0.04,0.04,0.05
		c0.03,0.02,0.06,0,0.1,0.01c0.12,0.05,0.25,0.1,0.38,0.15c0.02,0.02,0.02,0.04,0.05,0.06c0.04,0.02,0.08,0.01,0.12,0.01
		c0.26,0.1,0.51,0.22,0.77,0.31c0.01,0.01,0.01,0.02,0.02,0.02c0.01,0.01,0.03,0,0.04,0c1.93,0.72,3.93,1.32,6.01,1.74
		c-2.39-0.73-4.61-1.6-6.69-2.57c0,0,0-0.01-0.01-0.01c0,0-0.01,0-0.01,0c-1.21-0.57-2.35-1.18-3.45-1.83
		c0.23-0.37,0.45-0.74,0.61-1.14c1.09-2.84-0.28-5.23-2.71-7.31c-10.58-9.03-17.45-21.87-20.77-35.38
		c-0.91-3.69-4.42-6.17-8.01-5.65l-0.08,0.01c-2.23,0.32-4.08,1.87-4.95,4.15c-0.57,1.49-0.66,3.13-0.26,4.76
		c4,16.32,13.2,30.08,25.98,40.99C564.69,441.89,566.55,443.21,568.64,442.94z"/>
	
		<linearGradient id="SVGID_4_" gradientUnits="userSpaceOnUse" x1="-8231.6113" y1="-3310.2271" x2="-8231.6113" y2="-2141.5769" gradientTransform="matrix(-0.9049 0.4257 -0.4257 -0.9049 -8636.2959 816.7943)">
		<stop  offset="0" style="stop-color:#519CAB"/>
		<stop  offset="1" style="stop-color:#5FBF91"/>
	</linearGradient>
	<path class="st3" d="M125.5,165.4c0.49,1.62,1.53,2.9,2.94,3.67c-0.35,1.07-0.65,2.17-0.91,3.27c-0.01,0.02-0.03,0.03-0.04,0.05
		c-0.01,0.03,0.01,0.06,0.01,0.1c-0.03,0.13-0.06,0.26-0.09,0.4c-0.01,0.02-0.04,0.03-0.05,0.06c-0.01,0.04,0,0.08,0.01,0.12
		c-0.06,0.27-0.13,0.54-0.18,0.81c0,0.01-0.02,0.01-0.02,0.02c-0.01,0.02,0,0.03,0,0.04c-0.4,2.03-0.66,4.1-0.73,6.21
		c0.33-2.48,0.82-4.81,1.45-7.02c0,0,0,0,0.01-0.01c0,0,0-0.01,0-0.01c0.36-1.28,0.79-2.51,1.24-3.7c0.4,0.17,0.8,0.33,1.23,0.41
		c2.98,0.61,5.12-1.13,6.77-3.86c7.19-11.91,18.73-20.78,31.52-26.26c3.49-1.5,5.37-5.37,4.27-8.82l-0.03-0.08
		c-0.68-2.15-2.51-3.72-4.9-4.21c-1.56-0.32-3.2-0.14-4.73,0.52c-15.45,6.61-27.53,17.93-36.21,32.31
		C125.89,161.34,124.9,163.39,125.5,165.4z"/>
	
		<linearGradient id="SVGID_5_" gradientUnits="userSpaceOnUse" x1="405.2389" y1="704.4304" x2="405.2389" y2="2482.979" gradientTransform="matrix(0.984 -0.1783 0.1783 0.984 1.0146 -738.9033)">
		<stop  offset="0" style="stop-color:#519CAB"/>
		<stop  offset="1" style="stop-color:#5FBF91"/>
	</linearGradient>
	<path class="st4" d="M609.87,236.58l0.09-0.08c5.84-5.79,11.53-12.64,16.93-20.35l0.06-0.09c5.79-8.99,4.46-22.16-2.83-28.18
		l-0.63-0.44c-3.47-2-7.95-2.63-12.61-1.78c-5.91,1.07-11.3,4.36-14.77,9.02l-0.06,0.09c-5.32,7.76-9.74,15.49-13.11,22.99
		l-0.05,0.11c-2.46,6.15-0.8,12.95,2.53,17.49c-0.03,0-0.05,0-0.08,0c-0.52,0.05-1.09,0.12-1.71,0.25c-0.63,0.09-1.28,0.3-1.98,0.47
		c-0.68,0.25-1.41,0.44-2.11,0.79c-0.35,0.16-0.72,0.31-1.08,0.5c-0.35,0.2-0.7,0.4-1.05,0.6c-0.36,0.19-0.7,0.42-1.03,0.66l-1,0.72
		c-0.63,0.53-1.24,1.08-1.81,1.62c-0.53,0.6-1.07,1.17-1.55,1.75c-0.44,0.61-0.86,1.21-1.26,1.77c-0.37,0.58-0.67,1.16-0.97,1.67
		c-0.3,0.52-0.57,0.99-0.74,1.45c-0.19,0.44-0.36,0.83-0.5,1.14c-0.28,0.63-0.43,0.99-0.43,0.99s0.2-0.34,0.54-0.94
		c0.17-0.3,0.38-0.66,0.62-1.07c0.22-0.43,0.54-0.87,0.89-1.34c0.35-0.47,0.7-1,1.12-1.52c0.45-0.5,0.92-1.02,1.4-1.56
		c0.52-0.51,1.09-0.99,1.65-1.5c0.6-0.45,1.22-0.9,1.85-1.32l0.99-0.55c0.32-0.2,0.66-0.37,1-0.5c0.34-0.15,0.68-0.29,1.01-0.44
		c0.34-0.13,0.68-0.22,1.02-0.33c0.66-0.25,1.33-0.34,1.95-0.5c0.64-0.08,1.22-0.2,1.78-0.22c0.55-0.05,1.05-0.05,1.5-0.04
		c0.06,0,0.09,0.01,0.15,0.01c-0.75,1.11-1.78,2.54-3.09,4.17c-1.5,1.87-3.34,3.99-5.51,6.05c-1.08,1.05-2.25,2.05-3.47,3.03
		c-1.23,0.96-2.53,1.9-3.89,2.71c-1.35,0.85-2.78,1.53-4.22,2.14c-0.72,0.29-1.46,0.54-2.19,0.78c-0.74,0.17-1.46,0.44-2.2,0.53
		c-0.73,0.13-1.46,0.27-2.17,0.3c-0.36,0.03-0.71,0.06-1.07,0.09c-0.35-0.01-0.7-0.01-1.04-0.02c-0.34-0.01-0.69,0-1.02-0.02
		c-0.33-0.04-0.66-0.08-0.98-0.12c-0.32-0.04-0.64-0.07-0.96-0.11c-0.31-0.07-0.61-0.14-0.91-0.2c-1.2-0.21-2.24-0.64-3.19-0.94
		c-0.91-0.41-1.72-0.74-2.36-1.07c-1.26-0.71-1.97-1.12-1.97-1.12s0.67,0.48,1.85,1.33c0.61,0.4,1.38,0.82,2.26,1.34
		c0.93,0.41,1.96,0.96,3.18,1.31c0.3,0.1,0.61,0.2,0.92,0.31c0.32,0.07,0.65,0.15,0.98,0.23c0.34,0.08,0.68,0.15,1.02,0.23
		c0.35,0.06,0.71,0.09,1.07,0.14c0.36,0.04,0.73,0.09,1.11,0.13c0.38,0.01,0.76,0.02,1.15,0.03c0.78,0.05,1.56-0.02,2.37-0.08
		c0.81-0.03,1.61-0.22,2.44-0.32c0.81-0.17,1.63-0.35,2.45-0.58c1.62-0.49,3.25-1.07,4.8-1.82c1.56-0.72,3.06-1.57,4.49-2.46
		c1.42-0.91,2.79-1.85,4.05-2.84c2.55-1.95,4.74-3.99,6.55-5.81c1.76-1.77,3.14-3.34,4.1-4.49c0.14,0.37,0.29,0.75,0.42,1.2
		c0.34,1.1,0.62,2.43,0.68,3.86c0.01,0.72,0.01,1.46-0.11,2.21c-0.1,0.75-0.28,1.5-0.54,2.22c-0.24,0.73-0.6,1.43-0.99,2.09
		c-0.19,0.33-0.43,0.64-0.64,0.95c-0.24,0.3-0.48,0.59-0.71,0.88c-0.26,0.27-0.52,0.53-0.77,0.79c-0.27,0.24-0.54,0.47-0.79,0.7
		c-0.54,0.43-1.05,0.84-1.57,1.17c-0.51,0.34-0.98,0.64-1.42,0.87c-0.43,0.25-0.81,0.46-1.14,0.6c-0.65,0.31-1.02,0.49-1.02,0.49
		s0.39-0.14,1.06-0.37c0.34-0.11,0.75-0.28,1.21-0.48c0.47-0.18,0.98-0.43,1.53-0.72c0.56-0.27,1.13-0.64,1.74-1.02
		c0.29-0.21,0.6-0.42,0.9-0.64c0.29-0.24,0.59-0.49,0.89-0.74c0.28-0.28,0.57-0.56,0.86-0.85c0.26-0.31,0.55-0.62,0.8-0.96
		c0.5-0.68,0.98-1.4,1.35-2.2c0.38-0.78,0.67-1.61,0.88-2.45c0.22-0.83,0.32-1.68,0.39-2.5c0.1-1.64-0.04-3.17-0.29-4.46
		c-0.07-0.4-0.17-0.73-0.25-1.08c2.69,0.75,5.71,0.91,8.63,0.38C604.57,240.11,607.55,238.68,609.87,236.58z"/>
	
		<linearGradient id="SVGID_6_" gradientUnits="userSpaceOnUse" x1="-2990.9128" y1="-4886.769" x2="-2990.9128" y2="-3586.5159" gradientTransform="matrix(0.1783 0.984 -0.984 0.1783 -3973.9526 4170.7026)">
		<stop  offset="0" style="stop-color:#519CAB"/>
		<stop  offset="1" style="stop-color:#5FBF91"/>
	</linearGradient>
	<path class="st5" d="M42.21,418.42l0.06,0.07c4.23,4.27,9.24,8.43,14.87,12.38l0.07,0.04c6.57,4.23,16.2,3.26,20.6-2.07l0.32-0.46
		c1.46-2.54,1.92-5.81,1.3-9.22c-0.78-4.32-3.19-8.26-6.59-10.8l-0.07-0.05c-5.67-3.89-11.32-7.12-16.81-9.59l-0.08-0.04
		c-4.5-1.8-9.47-0.59-12.79,1.85c0-0.02,0-0.04,0-0.06c-0.04-0.38-0.09-0.8-0.18-1.25c-0.07-0.46-0.22-0.94-0.34-1.45
		c-0.18-0.49-0.32-1.03-0.58-1.54c-0.12-0.26-0.23-0.53-0.36-0.79c-0.14-0.25-0.29-0.51-0.44-0.77c-0.14-0.26-0.3-0.51-0.49-0.75
		l-0.52-0.73c-0.38-0.46-0.79-0.9-1.19-1.33c-0.44-0.39-0.86-0.78-1.28-1.13c-0.45-0.32-0.88-0.63-1.29-0.92
		c-0.42-0.27-0.85-0.49-1.22-0.71c-0.38-0.22-0.73-0.41-1.06-0.54c-0.32-0.14-0.61-0.27-0.84-0.37c-0.46-0.2-0.73-0.32-0.73-0.32
		s0.25,0.14,0.69,0.4c0.22,0.13,0.48,0.28,0.79,0.46c0.31,0.16,0.63,0.39,0.98,0.65c0.34,0.26,0.73,0.51,1.11,0.82
		c0.36,0.33,0.74,0.67,1.14,1.03c0.37,0.38,0.72,0.8,1.09,1.21c0.33,0.44,0.66,0.9,0.97,1.36l0.4,0.73
		c0.14,0.24,0.27,0.48,0.37,0.73c0.11,0.25,0.21,0.49,0.32,0.74c0.09,0.25,0.16,0.5,0.24,0.74c0.18,0.48,0.25,0.98,0.36,1.43
		c0.06,0.46,0.15,0.89,0.16,1.3c0.04,0.4,0.04,0.77,0.03,1.1c0,0.04,0,0.07-0.01,0.11c-0.81-0.55-1.86-1.3-3.05-2.26
		c-1.37-1.1-2.92-2.44-4.42-4.03c-0.76-0.79-1.5-1.64-2.22-2.54c-0.71-0.9-1.39-1.85-1.98-2.85c-0.62-0.99-1.12-2.03-1.57-3.08
		c-0.21-0.53-0.39-1.07-0.57-1.6c-0.12-0.54-0.32-1.07-0.39-1.61c-0.1-0.53-0.2-1.06-0.22-1.59c-0.02-0.26-0.04-0.52-0.06-0.78
		c0-0.26,0.01-0.51,0.01-0.76c0.01-0.25,0-0.5,0.02-0.74c0.03-0.24,0.06-0.48,0.09-0.72c0.03-0.24,0.05-0.47,0.08-0.7
		c0.05-0.22,0.1-0.45,0.15-0.66c0.16-0.88,0.46-1.64,0.68-2.34c0.3-0.66,0.54-1.25,0.78-1.72c0.52-0.92,0.82-1.44,0.82-1.44
		s-0.35,0.49-0.97,1.35c-0.29,0.44-0.6,1.01-0.98,1.66c-0.3,0.68-0.7,1.43-0.96,2.32c-0.07,0.22-0.15,0.44-0.23,0.67
		c-0.05,0.24-0.11,0.48-0.17,0.72c-0.06,0.25-0.11,0.5-0.17,0.75c-0.04,0.26-0.07,0.52-0.1,0.78c-0.03,0.27-0.07,0.54-0.1,0.81
		c-0.01,0.28-0.02,0.55-0.02,0.84c-0.03,0.57,0.01,1.14,0.06,1.73c0.02,0.59,0.16,1.18,0.24,1.78c0.12,0.59,0.26,1.19,0.43,1.79
		c0.36,1.18,0.78,2.38,1.33,3.51c0.53,1.14,1.15,2.24,1.8,3.29c0.66,1.04,1.35,2.04,2.08,2.96c1.43,1.86,2.92,3.47,4.25,4.79
		c1.29,1.29,2.44,2.29,3.28,3c-0.27,0.11-0.55,0.21-0.88,0.31c-0.81,0.25-1.77,0.45-2.82,0.5c-0.52,0.01-1.07,0.01-1.61-0.08
		c-0.55-0.07-1.1-0.2-1.63-0.4c-0.54-0.18-1.04-0.44-1.53-0.72c-0.24-0.14-0.46-0.31-0.7-0.47c-0.22-0.18-0.43-0.35-0.64-0.52
		c-0.2-0.19-0.39-0.38-0.58-0.56c-0.18-0.2-0.35-0.39-0.51-0.58c-0.31-0.39-0.62-0.77-0.85-1.15c-0.25-0.37-0.47-0.72-0.63-1.04
		c-0.18-0.32-0.33-0.59-0.44-0.83c-0.23-0.47-0.36-0.74-0.36-0.74s0.1,0.28,0.27,0.78c0.08,0.25,0.2,0.55,0.35,0.88
		c0.13,0.34,0.32,0.72,0.53,1.12c0.2,0.41,0.47,0.83,0.75,1.27c0.15,0.21,0.31,0.44,0.47,0.66c0.18,0.21,0.36,0.43,0.54,0.65
		c0.21,0.21,0.41,0.42,0.62,0.63c0.23,0.19,0.45,0.4,0.7,0.59c0.49,0.37,1.03,0.72,1.6,0.99c0.57,0.28,1.18,0.49,1.79,0.64
		c0.61,0.16,1.23,0.24,1.83,0.29c1.2,0.08,2.32-0.03,3.26-0.22c0.29-0.05,0.53-0.12,0.79-0.19c-0.55,1.97-0.66,4.17-0.28,6.31
		C39.62,414.55,40.67,416.73,42.21,418.42z"/>
	<linearGradient id="SVGID_7_" gradientUnits="userSpaceOnUse" x1="686.528" y1="4.724" x2="686.528" y2="1173.3741">
		<stop  offset="0" style="stop-color:#519CAB"/>
		<stop  offset="1" style="stop-color:#5FBF91"/>
	</linearGradient>
	<path class="st6" d="M701.39,214.12c0.01,0,0.01,0,0.02,0c0.13,0,0.31-0.04,0.47-0.23c0.1-0.11,0.09-0.29-0.02-0.39
		c-0.11-0.1-0.29-0.09-0.4,0.02c-0.02,0.02-0.06,0.04-0.06,0.04c-0.18-0.01-0.61-0.57-0.92-0.97c-0.58-0.75-1.33-1.72-2.32-2.19
		c0.57-0.69,1.07-1.44,1.52-2.22c0.52,0.5,1.51,0.56,2.37,0.61c1.18,0.06,1.9,0.14,1.9,0.66c0,0.15,0.13,0.28,0.28,0.28
		c0.16,0,0.28-0.12,0.28-0.28c0-1.1-1.29-1.16-2.43-1.22c-1.11-0.06-1.87-0.16-2.09-0.63c0.56-1.1,0.99-2.27,1.27-3.5
		c1.09,0.62,2.77,1.48,3.81,1.48c0.28,0,0.51-0.06,0.67-0.21c0.11-0.1,0.12-0.28,0.02-0.4c-0.1-0.11-0.28-0.12-0.4-0.02
		c-0.38,0.34-2.25-0.44-3.98-1.44c0.18-0.93,0.28-1.88,0.28-2.86c0-0.18-0.02-0.36-0.03-0.54c0.91-0.11,2.53-0.11,3.06,0.69
		c0.05,0.08,0.14,0.13,0.23,0.13c0.05,0,0.11-0.01,0.15-0.05c0.13-0.08,0.16-0.26,0.08-0.39c-0.73-1.12-2.68-1.04-3.55-0.94
		c-0.09-1.22-0.3-2.4-0.66-3.52c0.09,0.01,0.19,0.04,0.28,0.04c0.75,0,1.55-0.33,2.24-0.62c0.64-0.26,1.29-0.54,1.61-0.4
		c0.06,0.03,0.15,0.08,0.22,0.26c0.06,0.14,0.22,0.22,0.36,0.16c0.14-0.06,0.22-0.22,0.16-0.36c-0.11-0.28-0.28-0.47-0.52-0.57
		c-0.53-0.23-1.23,0.07-2.04,0.4c-0.85,0.35-1.79,0.74-2.53,0.49c-0.48-1.32-1.13-2.55-1.93-3.68c0.27-0.19,0.69-0.16,1.4,0
		c0.9,0.2,2.02,0.44,2.6-0.71c0.07-0.14,0.01-0.31-0.12-0.38c-0.14-0.07-0.31-0.01-0.38,0.12c-0.36,0.71-0.99,0.63-1.98,0.41
		c-0.63-0.14-1.36-0.29-1.87,0.08c-0.66-0.86-1.41-1.65-2.24-2.34c0.48-0.91,1.52-2.57,2.36-2.8c0.18-0.05,0.32-0.03,0.46,0.06
		c0.13,0.08,0.3,0.05,0.39-0.08c0.08-0.13,0.05-0.3-0.08-0.39c-0.27-0.18-0.59-0.23-0.92-0.13c-1.11,0.31-2.21,2.14-2.66,2.99
		c-1.02-0.8-2.14-1.48-3.35-2c0.17-0.42,0.65-0.81,1.19-1.23c0.89-0.7,1.91-1.49,1.89-2.82c0-0.15-0.13-0.28-0.28-0.28h0
		c-0.15,0-0.28,0.13-0.28,0.28c0.01,1.06-0.85,1.73-1.68,2.38c-0.59,0.46-1.15,0.91-1.37,1.47c-1.27-0.49-2.61-0.83-4.01-0.97
		c-0.33-1.15-0.79-3.22-0.36-4.06c0.08-0.16,0.19-0.25,0.32-0.3c0.15-0.05,0.23-0.2,0.18-0.35c-0.05-0.15-0.2-0.23-0.35-0.18
		c-0.28,0.09-0.5,0.28-0.65,0.58c-0.53,1.04-0.04,3.18,0.27,4.29c-0.31-0.02-0.62-0.05-0.94-0.05c-0.99,0-1.96,0.1-2.89,0.28
		c0.03-0.78-0.39-1.59-0.83-2.37c-0.5-0.89-0.98-1.74-0.56-2.29c0.09-0.12,0.07-0.3-0.05-0.39c-0.12-0.09-0.3-0.07-0.39,0.06
		c-0.64,0.84-0.05,1.89,0.52,2.9c0.43,0.77,0.86,1.56,0.75,2.22c-1.29,0.3-2.53,0.76-3.67,1.36c-0.37-0.71-1.11-1.32-1.83-1.92
		c-0.75-0.62-1.53-1.26-1.58-1.83c-0.01-0.15-0.15-0.26-0.3-0.25c-0.15,0.01-0.27,0.15-0.25,0.31c0.08,0.8,0.91,1.48,1.79,2.21
		c0.69,0.57,1.39,1.15,1.71,1.76c-1.39,0.8-2.65,1.82-3.72,3c-0.28-0.42-0.83-0.61-1.36-0.8c-0.75-0.27-1.45-0.52-1.64-1.3
		c-0.04-0.15-0.19-0.24-0.34-0.21c-0.15,0.04-0.24,0.19-0.21,0.34c0.26,1.08,1.22,1.42,2,1.7c0.62,0.22,1.02,0.39,1.14,0.73
		c-0.84,1.01-1.55,2.14-2.11,3.34c-0.63-0.81-1.74-1.72-3.42-1.25c-0.15,0.04-0.24,0.2-0.19,0.34c0.04,0.15,0.2,0.24,0.34,0.19
		c1.56-0.44,2.52,0.55,3,1.28c-0.75,1.79-1.16,3.74-1.17,5.8c-0.15-0.1-0.32-0.27-0.51-0.46c-0.59-0.6-1.46-1.48-3.08-1.46
		c-0.16,0-0.28,0.13-0.27,0.29c0,0.15,0.13,0.28,0.29,0.27c1.36-0.05,2.08,0.7,2.66,1.29c0.32,0.32,0.6,0.59,0.93,0.67
		c0.04,1.24,0.23,2.45,0.55,3.6c-0.81,0.77-2.17,1.85-3.13,1.75c-0.33-0.03-0.58-0.2-0.78-0.52c-0.08-0.13-0.25-0.17-0.39-0.09
		c-0.13,0.08-0.17,0.25-0.09,0.39c0.29,0.47,0.7,0.74,1.2,0.79c0.05,0.01,0.11,0.01,0.16,0.01c1.1,0,2.4-1,3.19-1.72
		c0.4,1.23,0.96,2.4,1.64,3.47c-0.38,0.92-1.53,1.17-3.06,1.38c-1.14,0.16-2.22,0.31-2.4,1.13c-0.03,0.15,0.06,0.3,0.21,0.34
		c0.02,0,0.04,0.01,0.06,0.01c0.13,0,0.24-0.09,0.27-0.22c0.1-0.44,0.99-0.57,1.94-0.7c1.22-0.17,2.67-0.39,3.32-1.41
		c0.68,0.98,1.48,1.87,2.37,2.67c-0.28,0.55-0.91,0.95-1.53,1.34c-0.83,0.53-1.69,1.07-1.61,1.99c0.01,0.15,0.14,0.26,0.28,0.26
		c0.01,0,0.02,0,0.03,0c0.15-0.01,0.27-0.15,0.25-0.3c-0.05-0.58,0.6-0.99,1.35-1.47c0.62-0.39,1.28-0.82,1.65-1.43
		c1.22,1.02,2.62,1.85,4.12,2.45c-0.11,0.55-0.77,0.86-1.78,1.23c-0.97,0.35-2.06,0.75-1.81,1.74c0.03,0.13,0.15,0.21,0.27,0.21
		c0.02,0,0.05,0,0.07-0.01c0.15-0.04,0.24-0.19,0.2-0.34c-0.12-0.46,0.47-0.71,1.45-1.07c0.88-0.32,1.92-0.71,2.15-1.55
		c1.57,0.56,3.26,0.88,5.02,0.89c0.13,0.85-0.33,1.95-0.72,2.86c-0.45,1.05-0.83,1.95-0.22,2.33c0.05,0.03,0.1,0.04,0.15,0.04
		c0.09,0,0.19-0.05,0.24-0.13c0.08-0.13,0.04-0.3-0.09-0.39c-0.2-0.12,0.19-1.03,0.44-1.63c0.41-0.96,0.89-2.11,0.77-3.1
		c1.6-0.05,3.13-0.34,4.57-0.84c0.34,0.54,0.39,1.64,0.42,2.56c0.04,1.08,0.07,2.01,0.51,2.38c0.13,0.11,0.29,0.17,0.46,0.17
		c0.03,0,0.06,0,0.09-0.01c0.15-0.02,0.26-0.15,0.25-0.31c-0.02-0.15-0.15-0.27-0.31-0.25c-0.06,0.01-0.09-0.01-0.12-0.03
		c-0.25-0.22-0.28-1.15-0.31-1.98c-0.04-1.02-0.08-2.07-0.44-2.74c1.03-0.4,2.01-0.91,2.92-1.51c0.45,0.41,0.71,1.37,0.94,2.23
		c0.32,1.2,0.66,2.43,1.56,2.43c0.06,0,0.13-0.01,0.19-0.02c0.15-0.03,0.25-0.17,0.23-0.33c-0.03-0.15-0.17-0.25-0.33-0.23
		c-0.5,0.09-0.78-0.78-1.11-2.01c-0.25-0.93-0.51-1.89-1.02-2.43c0.89-0.65,1.71-1.39,2.45-2.21c0.94,0.37,1.67,1.31,2.27,2.09
		C700.57,213.61,700.95,214.1,701.39,214.12z"/>
	<linearGradient id="SVGID_8_" gradientUnits="userSpaceOnUse" x1="238.5783" y1="256.0945" x2="238.5783" y2="1103.5581">
		<stop  offset="0" style="stop-color:#519CAB"/>
		<stop  offset="1" style="stop-color:#5FBF91"/>
	</linearGradient>
	<path class="st7" d="M249.36,407.94c0.01,0,0.01,0,0.02,0c0.09,0,0.22-0.03,0.34-0.17c0.07-0.08,0.07-0.21-0.02-0.29
		c-0.08-0.07-0.21-0.07-0.29,0.02c-0.01,0.01-0.05,0.03-0.04,0.03c-0.13-0.01-0.44-0.41-0.67-0.7c-0.42-0.55-0.96-1.25-1.68-1.59
		c0.41-0.5,0.78-1.04,1.1-1.61c0.37,0.36,1.1,0.41,1.72,0.44c0.86,0.04,1.38,0.1,1.38,0.48c0,0.11,0.09,0.2,0.2,0.2
		c0.11,0,0.2-0.09,0.2-0.2c0-0.8-0.94-0.84-1.76-0.89c-0.81-0.04-1.35-0.12-1.52-0.46c0.41-0.8,0.72-1.65,0.92-2.54
		c0.79,0.45,2.01,1.07,2.76,1.07c0.2,0,0.37-0.05,0.49-0.15c0.08-0.08,0.09-0.2,0.01-0.29c-0.08-0.08-0.2-0.09-0.29-0.01
		c-0.27,0.25-1.63-0.32-2.89-1.04c0.13-0.67,0.2-1.37,0.2-2.08c0-0.13-0.02-0.26-0.02-0.39c0.66-0.08,1.84-0.08,2.22,0.5
		c0.04,0.06,0.1,0.09,0.17,0.09c0.04,0,0.08-0.01,0.11-0.03c0.09-0.06,0.12-0.19,0.06-0.28c-0.53-0.81-1.94-0.75-2.58-0.68
		c-0.06-0.88-0.22-1.74-0.48-2.55c0.07,0.01,0.14,0.03,0.2,0.03c0.55,0,1.12-0.24,1.62-0.45c0.46-0.19,0.94-0.39,1.17-0.29
		c0.04,0.02,0.11,0.06,0.16,0.19c0.04,0.1,0.16,0.16,0.26,0.12c0.1-0.04,0.16-0.16,0.12-0.26c-0.08-0.2-0.21-0.34-0.38-0.41
		c-0.39-0.16-0.89,0.05-1.48,0.29c-0.61,0.26-1.3,0.54-1.83,0.36c-0.35-0.96-0.82-1.85-1.4-2.67c0.2-0.14,0.5-0.11,1.01,0
		c0.65,0.14,1.47,0.32,1.89-0.51c0.05-0.1,0.01-0.22-0.09-0.27c-0.1-0.05-0.22-0.01-0.27,0.09c-0.26,0.52-0.72,0.46-1.44,0.3
		c-0.46-0.1-0.99-0.21-1.35,0.06c-0.48-0.62-1.02-1.19-1.62-1.7c0.35-0.66,1.1-1.86,1.71-2.03c0.13-0.03,0.23-0.02,0.33,0.05
		c0.09,0.06,0.22,0.03,0.28-0.06c0.06-0.09,0.03-0.22-0.06-0.28c-0.2-0.13-0.43-0.16-0.66-0.1c-0.81,0.22-1.6,1.55-1.93,2.17
		c-0.74-0.58-1.55-1.07-2.43-1.45c0.12-0.31,0.47-0.58,0.86-0.89c0.65-0.51,1.38-1.08,1.37-2.05c0-0.11-0.09-0.2-0.2-0.2h0
		c-0.11,0-0.2,0.09-0.2,0.2c0.01,0.77-0.62,1.25-1.22,1.72c-0.43,0.33-0.83,0.66-0.99,1.06c-0.92-0.36-1.89-0.6-2.91-0.7
		c-0.24-0.83-0.57-2.34-0.26-2.95c0.06-0.11,0.13-0.18,0.23-0.22c0.11-0.03,0.17-0.15,0.13-0.26c-0.03-0.11-0.15-0.16-0.25-0.13
		c-0.21,0.06-0.37,0.21-0.47,0.42c-0.39,0.75-0.03,2.31,0.2,3.11c-0.23-0.01-0.45-0.03-0.68-0.03c-0.72,0-1.42,0.07-2.1,0.2
		c0.02-0.57-0.28-1.15-0.6-1.72c-0.36-0.65-0.71-1.26-0.41-1.66c0.07-0.09,0.05-0.22-0.04-0.29c-0.09-0.07-0.22-0.05-0.28,0.04
		c-0.46,0.61-0.04,1.37,0.38,2.1c0.31,0.56,0.62,1.13,0.55,1.61c-0.94,0.22-1.83,0.55-2.66,0.99c-0.27-0.51-0.8-0.96-1.33-1.4
		c-0.55-0.45-1.11-0.92-1.15-1.33c-0.01-0.11-0.11-0.19-0.22-0.18c-0.11,0.01-0.19,0.11-0.18,0.22c0.05,0.58,0.66,1.08,1.29,1.6
		c0.5,0.41,1.01,0.83,1.24,1.28c-1.01,0.58-1.92,1.32-2.7,2.18c-0.21-0.3-0.6-0.44-0.99-0.58c-0.54-0.19-1.05-0.38-1.19-0.94
		c-0.03-0.11-0.14-0.17-0.25-0.15c-0.11,0.03-0.18,0.14-0.15,0.25c0.19,0.78,0.89,1.03,1.45,1.23c0.45,0.16,0.74,0.28,0.82,0.53
		c-0.61,0.73-1.12,1.55-1.53,2.42c-0.46-0.59-1.26-1.25-2.48-0.9c-0.11,0.03-0.17,0.14-0.14,0.25c0.03,0.11,0.14,0.17,0.25,0.14
		c1.13-0.32,1.82,0.4,2.17,0.93c-0.54,1.3-0.84,2.72-0.85,4.21c-0.11-0.07-0.24-0.2-0.37-0.33c-0.42-0.43-1.06-1.08-2.23-1.06
		c-0.11,0-0.2,0.1-0.2,0.21c0,0.11,0.1,0.2,0.21,0.2c0.99-0.04,1.51,0.51,1.93,0.94c0.23,0.23,0.43,0.43,0.67,0.49
		c0.03,0.9,0.17,1.78,0.4,2.61c-0.59,0.56-1.58,1.34-2.27,1.27c-0.24-0.02-0.42-0.15-0.57-0.38c-0.06-0.1-0.18-0.13-0.28-0.07
		c-0.1,0.06-0.13,0.18-0.07,0.28c0.21,0.34,0.51,0.54,0.87,0.57c0.04,0,0.08,0.01,0.12,0.01c0.8,0,1.74-0.72,2.31-1.24
		c0.29,0.9,0.69,1.74,1.19,2.52c-0.28,0.67-1.11,0.85-2.22,1c-0.83,0.12-1.61,0.23-1.74,0.82c-0.02,0.11,0.04,0.22,0.15,0.24
		c0.02,0,0.03,0.01,0.05,0.01c0.09,0,0.18-0.06,0.2-0.16c0.07-0.32,0.72-0.41,1.4-0.51c0.89-0.13,1.94-0.28,2.41-1.02
		c0.49,0.71,1.07,1.36,1.72,1.93c-0.2,0.4-0.66,0.69-1.11,0.97c-0.6,0.38-1.22,0.78-1.16,1.44c0.01,0.11,0.1,0.18,0.2,0.18
		c0.01,0,0.01,0,0.02,0c0.11-0.01,0.19-0.11,0.18-0.22c-0.04-0.42,0.43-0.72,0.98-1.07c0.45-0.28,0.93-0.6,1.2-1.04
		c0.89,0.74,1.9,1.34,2.99,1.77c-0.08,0.4-0.56,0.62-1.29,0.89c-0.7,0.25-1.49,0.54-1.31,1.26c0.02,0.09,0.11,0.15,0.2,0.15
		c0.02,0,0.03,0,0.05-0.01c0.11-0.03,0.17-0.14,0.15-0.25c-0.09-0.33,0.34-0.52,1.05-0.78c0.63-0.23,1.39-0.51,1.56-1.12
		c1.14,0.4,2.36,0.64,3.64,0.64c0.1,0.61-0.24,1.41-0.52,2.08c-0.32,0.76-0.6,1.41-0.16,1.69c0.03,0.02,0.07,0.03,0.11,0.03
		c0.07,0,0.14-0.03,0.17-0.1c0.06-0.09,0.03-0.22-0.07-0.28c-0.15-0.09,0.14-0.75,0.32-1.18c0.3-0.7,0.65-1.53,0.56-2.25
		c1.16-0.04,2.27-0.25,3.31-0.61c0.25,0.39,0.28,1.19,0.31,1.86c0.03,0.78,0.05,1.46,0.37,1.73c0.09,0.08,0.21,0.12,0.33,0.12
		c0.02,0,0.04,0,0.06,0c0.11-0.01,0.19-0.11,0.18-0.22c-0.01-0.11-0.11-0.19-0.22-0.18c-0.04,0-0.07-0.01-0.09-0.02
		c-0.18-0.16-0.21-0.84-0.23-1.44c-0.03-0.74-0.06-1.5-0.32-1.99c0.75-0.29,1.46-0.66,2.12-1.1c0.32,0.3,0.51,0.99,0.68,1.62
		c0.23,0.87,0.48,1.76,1.13,1.76c0.04,0,0.09,0,0.14-0.01c0.11-0.02,0.18-0.13,0.16-0.24c-0.02-0.11-0.12-0.18-0.24-0.16
		c-0.36,0.07-0.56-0.56-0.81-1.46c-0.18-0.68-0.37-1.37-0.74-1.76c0.65-0.47,1.24-1.01,1.77-1.6c0.68,0.27,1.21,0.95,1.65,1.52
		C248.76,407.57,249.04,407.93,249.36,407.94z"/>
	<linearGradient id="SVGID_9_" gradientUnits="userSpaceOnUse" x1="55.6959" y1="-189.6305" x2="55.6959" y2="1455.3563">
		<stop  offset="0" style="stop-color:#519CAB"/>
		<stop  offset="1" style="stop-color:#5FBF91"/>
	</linearGradient>
	<path class="st8" d="M76.61,105.11c0.01,0,0.02,0,0.03,0c0.18,0,0.43-0.06,0.67-0.32c0.15-0.16,0.13-0.41-0.03-0.56
		c-0.16-0.14-0.41-0.13-0.56,0.03c-0.03,0.03-0.09,0.05-0.08,0.06c-0.25-0.01-0.85-0.8-1.29-1.37c-0.81-1.06-1.87-2.42-3.26-3.08
		c0.8-0.97,1.51-2.02,2.13-3.13c0.73,0.7,2.13,0.79,3.34,0.85c1.66,0.09,2.67,0.19,2.67,0.93c0,0.22,0.18,0.39,0.39,0.39
		c0.22,0,0.39-0.18,0.39-0.39c0-1.54-1.82-1.64-3.42-1.72c-1.56-0.08-2.63-0.23-2.94-0.89c0.79-1.55,1.4-3.2,1.79-4.93
		c1.53,0.88,3.9,2.09,5.36,2.09c0.39,0,0.72-0.09,0.95-0.3c0.16-0.15,0.17-0.4,0.02-0.56c-0.15-0.16-0.4-0.17-0.56-0.02
		c-0.53,0.48-3.17-0.61-5.61-2.02c0.25-1.31,0.39-2.65,0.39-4.03c0-0.25-0.03-0.5-0.04-0.75c1.28-0.15,3.57-0.16,4.3,0.97
		c0.08,0.11,0.2,0.18,0.33,0.18c0.07,0,0.15-0.02,0.22-0.06c0.18-0.12,0.23-0.36,0.11-0.55c-1.03-1.57-3.77-1.46-5-1.32
		c-0.12-1.71-0.43-3.38-0.92-4.96c0.13,0.02,0.26,0.05,0.4,0.05c1.06,0,2.18-0.47,3.15-0.87c0.89-0.37,1.82-0.76,2.26-0.57
		c0.08,0.04,0.21,0.11,0.3,0.36c0.08,0.2,0.31,0.31,0.51,0.23c0.2-0.08,0.3-0.31,0.22-0.51c-0.15-0.39-0.4-0.66-0.73-0.8
		c-0.75-0.32-1.73,0.09-2.88,0.57c-1.19,0.5-2.52,1.04-3.56,0.69c-0.68-1.86-1.59-3.6-2.72-5.18c0.38-0.27,0.98-0.22,1.97,0
		c1.27,0.28,2.85,0.62,3.66-0.99c0.1-0.19,0.02-0.43-0.17-0.53c-0.19-0.1-0.43-0.02-0.53,0.18c-0.51,1-1.39,0.89-2.79,0.58
		c-0.89-0.19-1.91-0.4-2.63,0.12c-0.93-1.21-1.98-2.32-3.15-3.3c0.68-1.28,2.13-3.61,3.33-3.94c0.25-0.07,0.45-0.04,0.65,0.09
		c0.18,0.12,0.43,0.07,0.55-0.12c0.12-0.18,0.07-0.43-0.12-0.54c-0.38-0.25-0.83-0.32-1.29-0.19c-1.56,0.43-3.1,3.02-3.74,4.21
		c-1.44-1.12-3.02-2.08-4.72-2.81c0.24-0.6,0.91-1.13,1.68-1.73c1.26-0.98,2.69-2.1,2.67-3.97c0-0.22-0.18-0.39-0.39-0.39h0
		c-0.22,0-0.39,0.18-0.39,0.4c0.02,1.49-1.19,2.43-2.36,3.35c-0.83,0.65-1.62,1.28-1.93,2.07c-1.78-0.69-3.67-1.17-5.64-1.37
		c-0.47-1.62-1.11-4.54-0.51-5.72c0.11-0.22,0.26-0.36,0.45-0.42c0.21-0.06,0.32-0.29,0.26-0.5c-0.06-0.21-0.29-0.32-0.49-0.26
		c-0.4,0.13-0.71,0.4-0.92,0.81c-0.75,1.46-0.06,4.48,0.38,6.04c-0.44-0.03-0.87-0.07-1.32-0.07c-1.39,0-2.75,0.14-4.07,0.4
		c0.04-1.1-0.55-2.23-1.17-3.34c-0.71-1.26-1.37-2.45-0.79-3.22c0.13-0.17,0.1-0.42-0.08-0.55c-0.17-0.13-0.42-0.1-0.55,0.08
		c-0.9,1.19-0.07,2.66,0.73,4.09c0.61,1.09,1.21,2.2,1.06,3.13c-1.82,0.42-3.56,1.06-5.17,1.92c-0.52-0.99-1.56-1.86-2.58-2.71
		c-1.06-0.87-2.15-1.78-2.23-2.58c-0.02-0.22-0.21-0.37-0.43-0.36c-0.22,0.02-0.38,0.21-0.36,0.43c0.11,1.12,1.28,2.09,2.51,3.11
		c0.97,0.8,1.96,1.62,2.41,2.48c-1.96,1.13-3.72,2.56-5.23,4.23c-0.4-0.59-1.17-0.86-1.92-1.12c-1.05-0.37-2.05-0.73-2.31-1.83
		c-0.05-0.21-0.26-0.34-0.48-0.29c-0.21,0.05-0.34,0.27-0.29,0.48c0.36,1.52,1.72,2,2.81,2.39c0.88,0.31,1.43,0.55,1.6,1.02
		c-1.19,1.42-2.18,3.01-2.97,4.71c-0.88-1.14-2.45-2.42-4.81-1.76c-0.21,0.06-0.33,0.28-0.27,0.48c0.06,0.21,0.28,0.33,0.49,0.27
		c2.19-0.61,3.54,0.78,4.22,1.8c-1.05,2.51-1.64,5.27-1.65,8.16c-0.21-0.14-0.46-0.38-0.72-0.64c-0.82-0.84-2.05-2.09-4.33-2.05
		c-0.22,0-0.39,0.19-0.38,0.4c0.01,0.22,0.19,0.39,0.4,0.38c1.91-0.07,2.93,0.98,3.75,1.81c0.45,0.45,0.84,0.83,1.31,0.94
		c0.06,1.75,0.32,3.45,0.77,5.07c-1.15,1.09-3.06,2.6-4.41,2.47c-0.46-0.04-0.82-0.29-1.1-0.74c-0.11-0.19-0.36-0.24-0.54-0.13
		c-0.19,0.11-0.24,0.36-0.13,0.54c0.41,0.67,0.98,1.04,1.7,1.11c0.08,0.01,0.15,0.01,0.23,0.01c1.55,0,3.37-1.4,4.49-2.41
		c0.56,1.74,1.35,3.37,2.31,4.89c-0.54,1.3-2.15,1.65-4.3,1.95c-1.6,0.23-3.12,0.44-3.38,1.59c-0.05,0.21,0.08,0.42,0.3,0.47
		c0.03,0.01,0.06,0.01,0.09,0.01c0.18,0,0.34-0.12,0.38-0.31c0.14-0.62,1.4-0.8,2.73-0.99c1.72-0.25,3.76-0.55,4.68-1.98
		c0.96,1.38,2.08,2.63,3.33,3.76c-0.4,0.77-1.29,1.34-2.15,1.89c-1.17,0.74-2.38,1.51-2.26,2.8c0.02,0.2,0.19,0.36,0.39,0.36
		c0.01,0,0.02,0,0.04,0c0.22-0.02,0.38-0.21,0.36-0.43c-0.07-0.82,0.84-1.4,1.9-2.07c0.87-0.55,1.81-1.16,2.33-2.02
		c1.72,1.44,3.68,2.6,5.8,3.44c-0.15,0.77-1.09,1.21-2.51,1.73c-1.36,0.49-2.9,1.05-2.54,2.44c0.04,0.18,0.21,0.3,0.38,0.3
		c0.03,0,0.07,0,0.1-0.01c0.21-0.05,0.34-0.27,0.28-0.48c-0.17-0.65,0.66-1,2.05-1.51c1.23-0.45,2.71-1,3.03-2.18
		c2.21,0.79,4.59,1.24,7.07,1.25c0.19,1.19-0.46,2.74-1.02,4.03c-0.63,1.47-1.17,2.74-0.31,3.28c0.06,0.04,0.14,0.06,0.21,0.06
		c0.13,0,0.26-0.07,0.34-0.19c0.11-0.18,0.06-0.43-0.13-0.54c-0.28-0.17,0.26-1.45,0.62-2.29c0.58-1.36,1.26-2.98,1.08-4.37
		c2.25-0.07,4.41-0.48,6.43-1.18c0.48,0.76,0.54,2.31,0.59,3.61c0.06,1.52,0.1,2.83,0.71,3.35c0.18,0.16,0.4,0.24,0.65,0.24
		c0.04,0,0.08,0,0.12-0.01c0.22-0.02,0.37-0.22,0.35-0.43c-0.02-0.22-0.21-0.37-0.43-0.35c-0.08,0.01-0.13-0.01-0.17-0.04
		c-0.35-0.3-0.4-1.62-0.44-2.79c-0.05-1.44-0.11-2.92-0.62-3.86c1.45-0.57,2.83-1.28,4.11-2.13c0.63,0.58,1,1.93,1.33,3.15
		c0.46,1.69,0.93,3.43,2.19,3.43c0.09,0,0.18-0.01,0.27-0.03c0.21-0.04,0.36-0.24,0.32-0.46c-0.04-0.21-0.24-0.35-0.46-0.32
		c-0.71,0.13-1.09-1.09-1.56-2.83c-0.35-1.31-0.72-2.66-1.43-3.42c1.26-0.91,2.41-1.96,3.45-3.11c1.32,0.51,2.35,1.84,3.19,2.94
		C75.46,104.39,75.99,105.09,76.61,105.11z"/>
	
		<linearGradient id="SVGID_10_" gradientUnits="userSpaceOnUse" x1="-3430.7585" y1="-5463.4492" x2="-3430.7585" y2="-2615.9485" gradientTransform="matrix(0 1 -1 0 -4386.3403 3661.1064)">
		<stop  offset="0" style="stop-color:#519CAB"/>
		<stop  offset="1" style="stop-color:#5FBF91"/>
	</linearGradient>
	<path class="st9" d="M749.97,232.48l9.04,3.97c2.25,0.99,4.88-0.03,5.87-2.29l0.04-0.08c0.99-2.25-0.03-4.88-2.29-5.87l-9.04-3.97
		c-2.25-0.99-4.88,0.03-5.87,2.29l-0.04,0.08C746.69,228.87,747.72,231.49,749.97,232.48z"/>
	
		<linearGradient id="SVGID_11_" gradientUnits="userSpaceOnUse" x1="-5300.8232" y1="-5417.5942" x2="-5300.8232" y2="-2570.0938" gradientTransform="matrix(-0.408 0.913 -0.913 -0.408 -5953.4492 3131.4473)">
		<stop  offset="0" style="stop-color:#519CAB"/>
		<stop  offset="1" style="stop-color:#5FBF91"/>
	</linearGradient>
	<path class="st10" d="M855.9,370.73l6.63,7.31c1.65,1.82,4.47,1.96,6.29,0.31l0.07-0.06c1.82-1.65,1.96-4.47,0.31-6.29l-6.63-7.31
		c-1.65-1.82-4.47-1.96-6.29-0.31l-0.07,0.06C854.39,366.09,854.25,368.91,855.9,370.73z"/>
	
		<linearGradient id="SVGID_12_" gradientUnits="userSpaceOnUse" x1="-7272.3931" y1="-3923.7981" x2="-7272.3931" y2="-1076.2974" gradientTransform="matrix(-0.7722 0.6354 -0.6354 -0.7722 -7443.228 2039.5692)">
		<stop  offset="0" style="stop-color:#519CAB"/>
		<stop  offset="1" style="stop-color:#5FBF91"/>
	</linearGradient>
	<path class="st11" d="M456.06,197.32l2.68,9.5c0.67,2.37,3.13,3.75,5.49,3.08l0.09-0.02c2.37-0.67,3.75-3.13,3.08-5.49l-2.68-9.5
		c-0.67-2.37-3.13-3.75-5.49-3.08l-0.09,0.02C456.77,192.49,455.39,194.95,456.06,197.32z"/>
	
		<linearGradient id="SVGID_13_" gradientUnits="userSpaceOnUse" x1="-8165.1987" y1="-2409.0051" x2="-8165.1987" y2="438.4956" gradientTransform="matrix(-0.962 0.2729 -0.2729 -0.962 -8109.6904 581.2488)">
		<stop  offset="0" style="stop-color:#519CAB"/>
		<stop  offset="1" style="stop-color:#5FBF91"/>
	</linearGradient>
	<path class="st12" d="M311.67,356.51l-1.35,9.78c-0.34,2.44,1.36,4.69,3.8,5.02l0.09,0.01c2.44,0.34,4.69-1.36,5.02-3.8l1.35-9.78
		c0.34-2.44-1.37-4.69-3.8-5.02l-0.09-0.01C314.25,352.37,312,354.07,311.67,356.51z"/>
	
		<linearGradient id="SVGID_14_" gradientUnits="userSpaceOnUse" x1="350.6622" y1="-2122.1936" x2="350.6622" y2="725.3071" gradientTransform="matrix(0.8713 0.4908 -0.4908 0.8713 -994.3661 1606.066)">
		<stop  offset="0" style="stop-color:#519CAB"/>
		<stop  offset="1" style="stop-color:#5FBF91"/>
	</linearGradient>
	<path class="st13" d="M194.01,215.23l7.89-5.93c1.97-1.48,2.37-4.27,0.89-6.23l-0.05-0.07c-1.48-1.97-4.27-2.37-6.24-0.89
		l-7.89,5.92c-1.97,1.48-2.37,4.27-0.89,6.24l0.05,0.07C189.25,216.3,192.04,216.7,194.01,215.23z"/>
	
		<linearGradient id="SVGID_15_" gradientUnits="userSpaceOnUse" x1="221.0298" y1="-2097.6414" x2="221.0298" y2="749.8594" gradientTransform="matrix(0.8713 0.4908 -0.4908 0.8713 -994.3661 1606.066)">
		<stop  offset="0" style="stop-color:#519CAB"/>
		<stop  offset="1" style="stop-color:#5FBF91"/>
	</linearGradient>
	<path class="st14" d="M69.02,173l7.89-5.93c1.97-1.48,2.37-4.27,0.89-6.23l-0.05-0.07c-1.48-1.97-4.27-2.37-6.24-0.89l-7.89,5.92
		c-1.97,1.48-2.37,4.27-0.89,6.24l0.05,0.07C64.26,174.07,67.05,174.47,69.02,173z"/>
	
		<linearGradient id="SVGID_16_" gradientUnits="userSpaceOnUse" x1="699.5391" y1="-2096.3738" x2="699.5391" y2="751.127" gradientTransform="matrix(0.8713 0.4908 -0.4908 0.8713 -994.3661 1606.066)">
		<stop  offset="0" style="stop-color:#519CAB"/>
		<stop  offset="1" style="stop-color:#5FBF91"/>
	</linearGradient>
	<path class="st15" d="M485.31,408.95l7.89-5.93c1.97-1.48,2.37-4.27,0.89-6.23l-0.05-0.07c-1.48-1.97-4.27-2.37-6.24-0.89
		l-7.89,5.92c-1.97,1.48-2.37,4.27-0.89,6.24l0.05,0.07C480.55,410.03,483.34,410.42,485.31,408.95z"/>
	
		<linearGradient id="SVGID_17_" gradientUnits="userSpaceOnUse" x1="455.0221" y1="791.1619" x2="455.0221" y2="3638.6626" gradientTransform="matrix(0.9931 -0.1176 0.1176 0.9931 -497.879 -804.7515)">
		<stop  offset="0" style="stop-color:#519CAB"/>
		<stop  offset="1" style="stop-color:#5FBF91"/>
	</linearGradient>
	<path class="st16" d="M87.6,252.04l2.88-9.44c0.72-2.35-0.61-4.84-2.96-5.56l-0.09-0.03c-2.35-0.72-4.84,0.61-5.56,2.96l-2.88,9.44
		c-0.72,2.35,0.61,4.84,2.96,5.56l0.09,0.03C84.39,255.72,86.88,254.39,87.6,252.04z"/>
	
		<linearGradient id="SVGID_18_" gradientUnits="userSpaceOnUse" x1="-3129.0298" y1="4274.3599" x2="-3129.0298" y2="7121.8604" gradientTransform="matrix(0.3192 -0.9477 0.9477 0.3192 -3230.7068 -4029.7163)">
		<stop  offset="0" style="stop-color:#519CAB"/>
		<stop  offset="1" style="stop-color:#5FBF91"/>
	</linearGradient>
	<path class="st17" d="M132,402.38l-7.3-6.64c-1.82-1.66-4.64-1.53-6.29,0.29l-0.06,0.07c-1.66,1.82-1.53,4.64,0.29,6.29l7.3,6.65
		c1.82,1.66,4.64,1.53,6.29-0.29l0.06-0.07C133.95,406.86,133.82,404.04,132,402.38z"/>
	
		<linearGradient id="SVGID_19_" gradientUnits="userSpaceOnUse" x1="-212.4364" y1="3158.4368" x2="-212.4364" y2="6005.9375" gradientTransform="matrix(0.7872 -0.6167 0.6167 0.7872 -1262.2186 -2568.0559)">
		<stop  offset="0" style="stop-color:#519CAB"/>
		<stop  offset="1" style="stop-color:#5FBF91"/>
	</linearGradient>
	<path class="st18" d="M721.96,305.36l-2.45-9.56c-0.61-2.38-3.04-3.82-5.42-3.21l-0.09,0.02c-2.38,0.61-3.82,3.04-3.21,5.42
		l2.45,9.56c0.61,2.38,3.04,3.82,5.42,3.21l0.09-0.02C721.13,310.17,722.57,307.74,721.96,305.36z"/>
	
		<linearGradient id="SVGID_20_" gradientUnits="userSpaceOnUse" x1="-366.305" y1="3067.2063" x2="-366.305" y2="5914.707" gradientTransform="matrix(0.7872 -0.6167 0.6167 0.7872 -1262.2186 -2568.0559)">
		<stop  offset="0" style="stop-color:#519CAB"/>
		<stop  offset="1" style="stop-color:#5FBF91"/>
	</linearGradient>
	<path class="st19" d="M544.57,328.44l-2.45-9.56c-0.61-2.38-3.04-3.82-5.42-3.21l-0.09,0.02c-2.38,0.61-3.82,3.04-3.21,5.42
		l2.45,9.56c0.61,2.38,3.04,3.82,5.42,3.21l0.09-0.02C543.75,333.25,545.18,330.83,544.57,328.44z"/>
	
		<linearGradient id="SVGID_21_" gradientUnits="userSpaceOnUse" x1="-251.0777" y1="3257.9021" x2="-251.0777" y2="6105.4028" gradientTransform="matrix(0.7872 -0.6167 0.6167 0.7872 -1262.2186 -2568.0559)">
		<stop  offset="0" style="stop-color:#519CAB"/>
		<stop  offset="1" style="stop-color:#5FBF91"/>
	</linearGradient>
	<path class="st20" d="M752.89,407.49l-2.45-9.56c-0.61-2.38-3.04-3.82-5.42-3.21l-0.09,0.02c-2.38,0.61-3.82,3.04-3.21,5.42
		l2.45,9.56c0.61,2.38,3.04,3.82,5.42,3.21l0.09-0.02C752.06,412.3,753.5,409.87,752.89,407.49z"/>
	
		<linearGradient id="SVGID_22_" gradientUnits="userSpaceOnUse" x1="-4219.4014" y1="3898.5999" x2="-4219.4014" y2="5317.2109" gradientTransform="matrix(0.1359 -0.9907 0.9907 0.1359 -3230.6345 -4469.6357)">
		<stop  offset="0" style="stop-color:#519CAB"/>
		<stop  offset="1" style="stop-color:#5FBF91"/>
	</linearGradient>
	<path class="st21" d="M422.01,262.68l-1.03,2.83c-0.72-0.15-1.45-0.23-2.17-0.23l-0.3-2.87c-0.06-0.58-0.58-0.99-1.15-0.93l-0.02,0
		c-0.58,0.06-0.99,0.58-0.93,1.15l0.3,2.84c-0.81,0.15-1.6,0.4-2.35,0.73l-1.13-2.57c-0.23-0.53-0.85-0.77-1.38-0.54l-0.02,0.01
		c-0.53,0.23-0.77,0.85-0.54,1.38l1.21,2.76c-0.71,0.5-1.38,1.1-1.97,1.78l-2.14-1.73c-0.45-0.36-1.11-0.3-1.48,0.16l-0.01,0.02
		c-0.36,0.45-0.29,1.11,0.16,1.48l2.12,1.71l-1.13,1.39l-2.12-1.71c-0.45-0.36-1.11-0.3-1.48,0.16l-0.01,0.02
		c-0.36,0.45-0.29,1.11,0.16,1.48l2.12,1.71l-1.13,1.4l-2.12-1.72c-0.45-0.36-1.11-0.29-1.48,0.15l-0.01,0.02
		c-0.37,0.45-0.3,1.11,0.16,1.48l2.12,1.72l-1.13,1.39l-2.12-1.72c-0.45-0.36-1.11-0.3-1.47,0.16l-0.01,0.02
		c-0.36,0.45-0.29,1.11,0.16,1.48l2.12,1.72l-1.13,1.39l-2.12-1.71c-0.45-0.36-1.11-0.3-1.48,0.15l-0.01,0.02
		c-0.36,0.45-0.29,1.11,0.16,1.48l2.12,1.72l-1.13,1.39l-2.12-1.72c-0.45-0.36-1.11-0.3-1.48,0.16l-0.01,0.02
		c-0.37,0.45-0.29,1.11,0.16,1.48l2.12,1.72l-1.13,1.39l-2.12-1.72c-0.45-0.36-1.11-0.3-1.48,0.16l-0.01,0.02
		c-0.37,0.45-0.3,1.11,0.16,1.48l2.12,1.72l-1.13,1.39l-2.12-1.72c-0.45-0.36-1.11-0.29-1.47,0.16l-0.01,0.02
		c-0.37,0.45-0.3,1.11,0.15,1.48l2.12,1.72l-1.13,1.39l-2.12-1.72c-0.45-0.36-1.11-0.3-1.48,0.15l-0.01,0.02
		c-0.36,0.45-0.29,1.11,0.16,1.48l2.22,1.8c-0.34,0.58-0.63,1.18-0.85,1.79l0.02-0.08l-3.09-0.64c-0.57-0.12-1.12,0.25-1.24,0.82
		l0,0.02c-0.12,0.57,0.25,1.12,0.82,1.24l2.98,0.62c-0.11,0.67-0.16,1.36-0.14,2.04l-2.85,0.3c-0.3,0.03-0.55,0.19-0.72,0.42
		c-0.19,0.21-0.29,0.49-0.26,0.8l0,0.02c0.06,0.58,0.58,0.99,1.15,0.93l2.95-0.31c0.15,0.68,0.37,1.35,0.66,1.99l-2.53,1.58
		c-0.49,0.31-0.64,0.95-0.33,1.45l0.01,0.02c0.31,0.49,0.95,0.64,1.45,0.33l2.45-1.53c0.4,0.57,0.85,1.1,1.36,1.59l-1.67,2.07
		c-0.36,0.45-0.29,1.11,0.16,1.48l0.02,0.01c0.45,0.36,1.11,0.3,1.48-0.16l1.67-2.07c0.6,0.4,1.22,0.74,1.86,1.01l-0.98,2.72
		c-0.2,0.54,0.08,1.15,0.63,1.34l0.02,0.01c0.54,0.2,1.15-0.08,1.34-0.63l1.02-2.81c0.67,0.14,1.35,0.21,2.03,0.22l0.31,2.93
		c0.06,0.58,0.58,0.99,1.15,0.93l0.02,0c0.58-0.06,1-0.58,0.93-1.15l-0.3-2.87c0.7-0.13,1.39-0.32,2.06-0.58l1.23,2.81
		c0.23,0.53,0.85,0.77,1.38,0.54l0.02-0.01c0.53-0.23,0.77-0.85,0.54-1.38l-1.27-2.89l-0.21,0.09c0.6-0.37,1.17-0.79,1.69-1.28
		l2.26,1.83c0.45,0.36,1.11,0.29,1.47-0.16l0.01-0.02c0.37-0.45,0.3-1.11-0.15-1.48l-2.16-1.74l1.13-1.39l2.16,1.74
		c0.45,0.36,1.11,0.3,1.48-0.16l0.01-0.02c0.36-0.45,0.29-1.11-0.16-1.48l-2.16-1.74l1.13-1.4l2.16,1.75
		c0.45,0.36,1.11,0.29,1.48-0.16l0.01-0.02c0.36-0.45,0.29-1.11-0.16-1.48l-2.16-1.75l1.13-1.39l2.16,1.74
		c0.45,0.36,1.11,0.3,1.48-0.16l0.01-0.02c0.37-0.45,0.3-1.11-0.16-1.48l-2.16-1.74l1.13-1.39l2.16,1.75
		c0.45,0.36,1.11,0.29,1.47-0.16l0.01-0.02c0.36-0.45,0.29-1.11-0.16-1.48l-2.16-1.75l1.13-1.39l2.16,1.75
		c0.45,0.36,1.11,0.29,1.48-0.16l0.01-0.02c0.36-0.45,0.29-1.11-0.16-1.48l-2.16-1.74l1.13-1.4l2.16,1.75
		c0.45,0.36,1.11,0.3,1.48-0.16l0.01-0.02c0.37-0.45,0.29-1.11-0.16-1.48l-2.16-1.75l1.13-1.39l2.16,1.74
		c0.45,0.36,1.11,0.3,1.48-0.15l0.01-0.02c0.37-0.45,0.3-1.11-0.16-1.48l-2.16-1.75l1.13-1.39l2.16,1.75
		c0.45,0.36,1.11,0.29,1.48-0.16l0.01-0.02c0.36-0.45,0.29-1.11-0.16-1.48l-2.17-1.76c0.54-0.72,0.99-1.49,1.32-2.29l2.97,0.61
		c0.57,0.12,1.12-0.25,1.24-0.82l0-0.02c0.12-0.57-0.25-1.12-0.82-1.24l-2.77-0.57c0.17-0.83,0.25-1.66,0.22-2.5l2.8-0.3
		c0.58-0.06,0.99-0.58,0.93-1.15l0-0.02c-0.06-0.58-0.58-0.99-1.15-0.93l-2.84,0.3c-0.15-0.69-0.38-1.37-0.67-2.03l2.57-1.6
		c0.49-0.31,0.64-0.95,0.33-1.45l-0.01-0.02c-0.31-0.49-0.95-0.64-1.45-0.33l-2.49,1.55c-0.4-0.57-0.85-1.1-1.37-1.6l1.7-2.09
		c0.36-0.45,0.29-1.11-0.16-1.48l-0.02-0.01c-0.45-0.36-1.11-0.29-1.48,0.16l-1.69,2.09c-0.59-0.4-1.2-0.73-1.83-0.99l1-2.75
		c0.2-0.54-0.08-1.15-0.63-1.34l-0.02-0.01C422.81,261.85,422.21,262.13,422.01,262.68z"/>
	
		<linearGradient id="SVGID_23_" gradientUnits="userSpaceOnUse" x1="-2643.2927" y1="3465.241" x2="-2643.2927" y2="5499.8989" gradientTransform="matrix(0.4603 -0.8877 0.8877 0.4603 -1966.5674 -3972.1326)">
		<stop  offset="0" style="stop-color:#519CAB"/>
		<stop  offset="1" style="stop-color:#5FBF91"/>
	</linearGradient>
	<path class="st22" d="M291.47,159.24c-2.87,2.65-1.49,7.91,4.48,17.06c4.33,6.62,13.14,13.98,20.42,21.93
		c0.21,0.23,13.04,16.41,18.92,20.86c7.88,5.96,12.91,7.49,15.83,4.79c2.92-2.69,0.82-8.59-1.6-12.99
		c-4.07-7.38-14.41-15.48-21.74-23.42c-7.54-8.17-13.22-17.41-19.66-22.4C299.48,158.39,294.34,156.59,291.47,159.24z"/>
	
		<linearGradient id="SVGID_24_" gradientUnits="userSpaceOnUse" x1="-8451.833" y1="761.5678" x2="-8451.833" y2="3996.3337" gradientTransform="matrix(-0.8334 -0.5526 0.5526 -0.8334 -7707.1865 -3108.0867)">
		<stop  offset="0" style="stop-color:#519CAB"/>
		<stop  offset="1" style="stop-color:#5FBF91"/>
	</linearGradient>
	<path class="st23" d="M125.21,330.16c3.7,4.99,12.25,3.7,27.73-4.18c11.21-5.71,24.33-18.39,38.14-28.55
		c0.41-0.3,28.16-17.82,36.19-26.36c10.77-11.44,14.03-19.13,10.27-24.2c-3.76-5.08-13.44-2.76-20.8,0.32
		c-12.36,5.18-26.93,20.15-40.72,30.38c-14.19,10.52-29.77,17.94-38.75,27.27C125.23,317.36,121.51,325.17,125.21,330.16z"/>
	
		<linearGradient id="SVGID_25_" gradientUnits="userSpaceOnUse" x1="-1957.3922" y1="3854.0037" x2="-1957.3922" y2="5557.5479" gradientTransform="matrix(0.5351 -0.8448 0.8448 0.5351 -1627.2408 -3531.7563)">
		<stop  offset="0" style="stop-color:#519CAB"/>
		<stop  offset="1" style="stop-color:#5FBF91"/>
	</linearGradient>
	<path class="st24" d="M967.39,389.66l-2.54,2.58c-0.71-0.52-1.47-0.97-2.26-1.34l1.1-3.28c0.22-0.66-0.13-1.37-0.79-1.59
		l-0.03-0.01c-0.66-0.22-1.37,0.13-1.59,0.79l-1.09,3.25c-0.96-0.24-1.94-0.36-2.94-0.38l0.05-3.37c0.01-0.7-0.55-1.27-1.24-1.28
		l-0.03,0c-0.7-0.01-1.27,0.55-1.28,1.24l-0.05,3.62c-1.03,0.19-2.05,0.51-3.04,0.96l-1.47-2.95c-0.31-0.62-1.07-0.88-1.69-0.57
		l-0.02,0.01c-0.62,0.31-0.88,1.07-0.57,1.69l1.46,2.93l-1.93,0.96l-1.46-2.93c-0.31-0.62-1.07-0.88-1.69-0.57l-0.02,0.01
		c-0.62,0.31-0.88,1.07-0.57,1.69l1.46,2.93l-1.93,0.96l-1.46-2.93c-0.31-0.62-1.07-0.88-1.69-0.57l-0.02,0.01
		c-0.62,0.31-0.88,1.07-0.57,1.69l1.46,2.93l-1.93,0.96l-1.46-2.93c-0.31-0.62-1.07-0.88-1.69-0.56l-0.02,0.01
		c-0.62,0.31-0.88,1.07-0.56,1.69l1.46,2.93l-1.93,0.96l-1.46-2.93c-0.31-0.62-1.07-0.88-1.69-0.57l-0.02,0.01
		c-0.62,0.31-0.88,1.07-0.57,1.69l1.46,2.93l-1.93,0.96l-1.46-2.93c-0.31-0.62-1.07-0.88-1.69-0.57l-0.02,0.01
		c-0.62,0.31-0.88,1.07-0.57,1.69l1.46,2.93l-1.93,0.96l-1.46-2.93c-0.31-0.62-1.07-0.88-1.69-0.57l-0.02,0.01
		c-0.62,0.31-0.88,1.07-0.57,1.69l1.46,2.93l-1.93,0.96l-1.46-2.93c-0.31-0.62-1.07-0.88-1.69-0.56l-0.02,0.01
		c-0.62,0.31-0.88,1.07-0.57,1.69l1.46,2.93l-1.93,0.96l-1.46-2.93c-0.31-0.62-1.07-0.88-1.69-0.57l-0.02,0.01
		c-0.62,0.31-0.88,1.07-0.57,1.69l1.53,3.07c-0.66,0.46-1.27,0.97-1.82,1.53l0.06-0.08l-3.06-2.24c-0.56-0.41-1.35-0.29-1.76,0.27
		l-0.02,0.02c-0.41,0.56-0.29,1.35,0.27,1.76l2.95,2.16c-0.46,0.68-0.85,1.4-1.17,2.15l-3.27-1.09c-0.35-0.12-0.7-0.07-1,0.1
		c-0.31,0.14-0.57,0.39-0.68,0.74l-0.01,0.02c-0.22,0.66,0.14,1.37,0.8,1.59l3.38,1.13c-0.17,0.82-0.26,1.66-0.27,2.5l-3.55,0.46
		c-0.69,0.09-1.17,0.72-1.09,1.41l0,0.03c0.09,0.69,0.72,1.18,1.41,1.09l3.43-0.45c0.15,0.82,0.38,1.63,0.69,2.42l-2.86,1.43
		c-0.62,0.31-0.88,1.07-0.57,1.69l0.01,0.02c0.31,0.62,1.07,0.88,1.69,0.57l2.86-1.42c0.45,0.74,0.96,1.41,1.53,2.03l-2.43,2.48
		c-0.49,0.5-0.48,1.29,0.02,1.78l0.02,0.02c0.49,0.49,1.29,0.48,1.78-0.02l2.51-2.56c0.66,0.49,1.37,0.9,2.11,1.25l-1.12,3.35
		c-0.22,0.66,0.14,1.37,0.8,1.59l0.02,0.01c0.66,0.22,1.38-0.13,1.6-0.79l1.1-3.29c0.83,0.21,1.68,0.35,2.54,0.39l-0.05,3.68
		c-0.01,0.7,0.55,1.27,1.24,1.28l0.03,0c0.7,0.01,1.27-0.55,1.28-1.24l0.05-3.79l-0.28,0c0.84-0.1,1.67-0.28,2.49-0.55l1.56,3.12
		c0.31,0.62,1.07,0.88,1.69,0.56l0.02-0.01c0.62-0.31,0.88-1.07,0.57-1.69l-1.49-2.98l1.93-0.96l1.49,2.98
		c0.31,0.62,1.07,0.88,1.69,0.57l0.02-0.01c0.62-0.31,0.88-1.07,0.57-1.69l-1.49-2.98l1.93-0.96l1.48,2.98
		c0.31,0.62,1.07,0.88,1.69,0.57l0.02-0.01c0.62-0.31,0.88-1.07,0.57-1.69l-1.48-2.98l1.93-0.96l1.49,2.98
		c0.31,0.62,1.07,0.88,1.69,0.57l0.02-0.01c0.62-0.31,0.88-1.07,0.57-1.69l-1.49-2.98l1.93-0.96l1.49,2.98
		c0.31,0.62,1.07,0.88,1.69,0.56l0.02-0.01c0.62-0.31,0.88-1.07,0.57-1.69l-1.49-2.98l1.93-0.96l1.49,2.98
		c0.31,0.62,1.07,0.88,1.69,0.57l0.02-0.01c0.62-0.31,0.88-1.07,0.57-1.69l-1.49-2.98l1.93-0.96l1.49,2.98
		c0.31,0.62,1.07,0.88,1.69,0.57l0.02-0.01c0.62-0.31,0.88-1.07,0.57-1.69l-1.48-2.98l1.93-0.96l1.49,2.98
		c0.31,0.62,1.07,0.88,1.69,0.57l0.02-0.01c0.62-0.31,0.88-1.07,0.57-1.69l-1.48-2.98l1.93-0.96l1.49,2.98
		c0.31,0.62,1.07,0.88,1.69,0.57l0.02-0.01c0.62-0.31,0.88-1.07,0.57-1.69l-1.5-3c0.95-0.52,1.82-1.14,2.59-1.84l2.94,2.15
		c0.56,0.41,1.35,0.29,1.76-0.27l0.02-0.02c0.41-0.56,0.29-1.35-0.27-1.76l-2.74-2.01c0.6-0.82,1.1-1.7,1.49-2.62l3.21,1.07
		c0.66,0.22,1.37-0.13,1.59-0.79l0.01-0.02c0.22-0.66-0.14-1.37-0.79-1.6l-3.25-1.09c0.18-0.83,0.27-1.69,0.28-2.55l3.6-0.47
		c0.69-0.09,1.18-0.72,1.08-1.41l0-0.02c-0.09-0.69-0.72-1.18-1.41-1.09l-3.49,0.46c-0.15-0.82-0.38-1.63-0.69-2.43l2.9-1.44
		c0.62-0.31,0.88-1.07,0.57-1.69l-0.01-0.02c-0.31-0.62-1.07-0.88-1.69-0.57l-2.9,1.44c-0.44-0.73-0.95-1.39-1.51-2l2.46-2.51
		c0.49-0.5,0.48-1.3-0.02-1.78l-0.02-0.02C968.68,389.16,967.88,389.16,967.39,389.66z"/>
	
		<linearGradient id="SVGID_26_" gradientUnits="userSpaceOnUse" x1="-4950.3604" y1="-5543.0947" x2="-4950.3604" y2="-4374.4448" gradientTransform="matrix(-0.2677 0.9635 -0.9635 -0.2677 -5684.731 3724.9961)">
		<stop  offset="0" style="stop-color:#519CAB"/>
		<stop  offset="1" style="stop-color:#5FBF91"/>
	</linearGradient>
	<path class="st25" d="M672.19,356.85c6.8,0.01,10.02-1.06,10.42-3.46c0.41-2.4-2.28-4.47-8.7-6.7c-4.65-1.62-11.8-1.89-18.41-3.04
		c-0.2-0.03-12.68-3.12-17.27-3.08c-6.15,0.06-9.21,1.22-9.63,3.66c-0.41,2.44,2.87,4.55,5.73,5.79c4.82,2.09,13,2.14,19.63,3.27
		C660.79,354.46,667.12,356.85,672.19,356.85z"/>
</g>
</svg>
