<?xml version="1.0" encoding="utf-8"?>
<!-- Generator: Adobe Illustrator 24.0.0, SVG Export Plug-In . SVG Version: 6.00 Build 0)  -->
<svg version="1.1" id="Layer_1" xmlns="http://www.w3.org/2000/svg" xmlns:xlink="http://www.w3.org/1999/xlink" x="0px" y="0px"
	 viewBox="0 0 1000 1000" style="enable-background:new 0 0 1000 1000;" xml:space="preserve">
<style type="text/css">
	.st0{display:none;fill:#1C272D;}
	.st1{fill:url(#SVGID_1_);}
	.st2{fill:url(#SVGID_2_);}
	.st3{fill:url(#SVGID_3_);}
	.st4{fill:url(#SVGID_4_);}
	.st5{fill:url(#SVGID_5_);}
	.st6{fill:url(#SVGID_6_);}
	.st7{fill:url(#SVGID_7_);}
	.st8{fill:url(#SVGID_8_);}
	.st9{fill:url(#SVGID_9_);}
	.st10{fill:url(#SVGID_10_);}
	.st11{fill:url(#SVGID_11_);}
	.st12{fill:url(#SVGID_12_);}
	.st13{fill:url(#SVGID_13_);}
	.st14{fill:url(#SVGID_14_);}
	.st15{fill:url(#SVGID_15_);}
	.st16{fill:url(#SVGID_16_);}
</style>
<rect class="st0" width="1000" height="1000"/>
<g>
	<g>
		<g>
			<linearGradient id="SVGID_1_" gradientUnits="userSpaceOnUse" x1="499.6022" y1="766.1194" x2="499.6022" y2="278.1326">
				<stop  offset="0" style="stop-color:#519CAB"/>
				<stop  offset="1" style="stop-color:#5FBF91"/>
			</linearGradient>
			<path class="st1" d="M499.6,354.33c-81.03,0-146.95,65.92-146.95,146.95s65.92,146.94,146.95,146.94
				c81.03,0,146.95-65.92,146.95-146.94S580.63,354.33,499.6,354.33z M499.6,616.71c-63.65,0-115.44-51.79-115.44-115.43
				c0-63.66,51.79-115.44,115.44-115.44c63.65,0,115.44,51.79,115.44,115.44C615.04,564.93,563.26,616.71,499.6,616.71z"/>
			<linearGradient id="SVGID_2_" gradientUnits="userSpaceOnUse" x1="646.9083" y1="766.1194" x2="646.9083" y2="278.1326">
				<stop  offset="0" style="stop-color:#519CAB"/>
				<stop  offset="1" style="stop-color:#5FBF91"/>
			</linearGradient>
			<path class="st2" d="M741.68,381.89c0-22.15-18.02-40.18-40.17-40.18c-22.15,0-40.18,18.02-40.18,40.18
				c0,18.02,12,33.12,28.36,38.2v164.09c0,17.27-9.3,33.37-24.26,42.01L552.14,691.6l11.82,20.46l113.29-65.41
				c22.25-12.85,36.07-36.79,36.07-62.47V420.09C729.68,415.01,741.68,399.9,741.68,381.89z M701.5,398.44
				c-9.12,0-16.55-7.42-16.55-16.55c0-9.12,7.42-16.55,16.55-16.55s16.54,7.42,16.54,16.55
				C718.04,391.01,710.63,398.44,701.5,398.44z"/>
			<linearGradient id="SVGID_3_" gradientUnits="userSpaceOnUse" x1="449.9334" y1="766.1194" x2="449.9334" y2="278.1326">
				<stop  offset="0" style="stop-color:#519CAB"/>
				<stop  offset="1" style="stop-color:#5FBF91"/>
			</linearGradient>
			<path class="st3" d="M333.84,381.89c0-2.12-0.31-4.16-0.63-6.2l140.12-82.24c14.96-8.63,33.55-8.63,48.51,0l112.73,65.08
				l11.82-20.46L533.65,273c-22.25-12.85-49.89-12.84-72.21,0.04L322.8,354.4c-7.33-7.77-17.64-12.68-29.14-12.68
				c-22.15,0-40.17,18.02-40.17,40.18c0,22.15,18.02,40.18,40.17,40.18C315.81,422.07,333.84,404.05,333.84,381.89z M277.12,381.89
				c0-9.12,7.42-16.55,16.54-16.55c9.12,0,16.55,7.42,16.55,16.55c0,9.12-7.42,16.55-16.55,16.55
				C284.54,398.44,277.12,391.01,277.12,381.89z"/>
			<linearGradient id="SVGID_4_" gradientUnits="userSpaceOnUse" x1="410.8112" y1="766.1194" x2="410.8112" y2="278.1326">
				<stop  offset="0" style="stop-color:#519CAB"/>
				<stop  offset="1" style="stop-color:#5FBF91"/>
			</linearGradient>
			<path class="st4" d="M499.6,695.18c-11.36,0-21.59,4.79-28.9,12.4l-140.96-81.39c-14.96-8.64-24.26-24.74-24.26-42.01V452h-23.63
				v132.18c0,25.69,13.82,49.62,36.07,62.47l142.18,82.09c-0.36,2.16-0.67,4.35-0.67,6.62c0,22.15,18.02,40.18,40.17,40.18
				c22.15,0,40.18-18.02,40.18-40.18S521.75,695.18,499.6,695.18z M499.6,751.9c-9.12,0-16.54-7.42-16.54-16.55
				s7.42-16.55,16.54-16.55c9.12,0,16.55,7.42,16.55,16.55S508.72,751.9,499.6,751.9z"/>
			<linearGradient id="SVGID_5_" gradientUnits="userSpaceOnUse" x1="459.9861" y1="766.1194" x2="459.9861" y2="278.1326">
				<stop  offset="0" style="stop-color:#519CAB"/>
				<stop  offset="1" style="stop-color:#5FBF91"/>
			</linearGradient>
			<path class="st5" d="M459.99,538.01c-11.93,0-21.6,9.67-21.6,21.6c0,11.93,9.67,21.59,21.6,21.59c11.93,0,21.6-9.67,21.6-21.59
				C481.58,547.68,471.91,538.01,459.99,538.01z"/>
			<linearGradient id="SVGID_6_" gradientUnits="userSpaceOnUse" x1="523.0132" y1="766.1194" x2="523.0132" y2="278.1326">
				<stop  offset="0" style="stop-color:#519CAB"/>
				<stop  offset="1" style="stop-color:#5FBF91"/>
			</linearGradient>
			<path class="st6" d="M518.94,482.33v10.43h8.16v-10.43c5.42-0.73,10.36-2.82,14.5-5.98l7.36,7.36l5.77-5.77l-7.36-7.36
				c3.17-4.14,5.26-9.08,5.99-14.5h10.43v-8.15h-10.43c-0.73-5.42-2.82-10.36-5.99-14.5l7.36-7.36l-5.77-5.77l-7.36,7.36
				c-4.14-3.17-9.08-5.26-14.5-5.98v-10.43h-8.16v10.43c-5.42,0.73-10.36,2.82-14.5,5.98l-7.36-7.36l-5.77,5.77l7.36,7.36
				c-3.17,4.14-5.26,9.08-5.98,14.5h-10.43v8.15h10.43c0.73,5.42,2.82,10.36,5.98,14.5l-7.36,7.36l5.77,5.77l7.36-7.36
				C508.58,479.51,513.52,481.6,518.94,482.33z"/>
			<linearGradient id="SVGID_7_" gradientUnits="userSpaceOnUse" x1="553.6123" y1="766.1194" x2="553.6123" y2="278.1326">
				<stop  offset="0" style="stop-color:#519CAB"/>
				<stop  offset="1" style="stop-color:#5FBF91"/>
			</linearGradient>
			<path class="st7" d="M557.07,580.44c34.19-23.13,34.69-63.6,34.69-63.6c-3.52-24.39-18.72,8.45-57.82,27.4
				C496.02,562.63,522.88,603.57,557.07,580.44z"/>
		</g>
		<linearGradient id="SVGID_8_" gradientUnits="userSpaceOnUse" x1="433.2393" y1="766.1194" x2="433.2393" y2="278.1326">
			<stop  offset="0" style="stop-color:#519CAB"/>
			<stop  offset="1" style="stop-color:#5FBF91"/>
		</linearGradient>
		<path class="st8" d="M455.52,444.49c-1.85-15.17-24.08-14.61-26.06,0.55c-0.95,7.32-0.94,16.36-8.09,25.36
			c-14.12,17.8-14.31,37.37,0.74,40.33c15.05,2.96,23.44-16.29,23.47-31.83c0.03-15.54,10.83-21.22,10.04-33.31
			C455.6,445.21,455.57,444.84,455.52,444.49z"/>
		<g>
			<linearGradient id="SVGID_9_" gradientUnits="userSpaceOnUse" x1="585.955" y1="766.1194" x2="585.955" y2="278.1326">
				<stop  offset="0" style="stop-color:#519CAB"/>
				<stop  offset="1" style="stop-color:#5FBF91"/>
			</linearGradient>
			<path class="st9" d="M579.16,527.41v-8.45h2.08c7.04-8.95,10.91-19.75,9.97-28.1c-0.44-3.92-1.96-6.93-4.4-8.72
				c-10.02-7.35-10.14-14.76-10.14-15.07h3.91h-1.95l1.95-0.03c0,0.24,0.24,5.87,8.54,11.96c3.34,2.45,5.41,6.39,5.97,11.42
				c1.13,10-3.78,22.97-12.5,33.04L579.16,527.41z"/>
		</g>
		<linearGradient id="SVGID_10_" gradientUnits="userSpaceOnUse" x1="582.9785" y1="766.1194" x2="582.9785" y2="278.1326">
			<stop  offset="0" style="stop-color:#519CAB"/>
			<stop  offset="1" style="stop-color:#5FBF91"/>
		</linearGradient>
		<path class="st10" d="M590.63,498.3c-1.22-4.91-3.78-8.55-7.41-10.54c-3.26-1.79-5.44-3.65-6.93-5.31l-1.77,3.75
			c1.69,1.65,3.87,3.36,6.82,4.98c2.65,1.46,4.55,4.24,5.5,8.07c2.03,8.16-0.41,19.38-6.21,29.16l-2.06,0.27l1.1,8.38l2.88-4.37
			C589.89,521.56,593.06,508.07,590.63,498.3z"/>
	</g>
	<g>
		<linearGradient id="SVGID_11_" gradientUnits="userSpaceOnUse" x1="301.1495" y1="210.2686" x2="889.0823" y2="558.4747">
			<stop  offset="0" style="stop-color:#5FBF91"/>
			<stop  offset="0.5" style="stop-color:#5FBF91;stop-opacity:0"/>
			<stop  offset="1" style="stop-color:#5FBF91"/>
		</linearGradient>
		<path class="st11" d="M762.48,363.22c-0.01-0.58-0.03-1.15-0.1-1.72c-0.06-0.57-0.1-1.15-0.21-1.71
			c-0.7-4.55-2.57-8.92-5.38-12.58c-1.4-1.83-3.04-3.48-4.86-4.9c-0.91-0.7-1.86-1.37-2.85-1.96c-0.97-0.59-1.87-1.09-2.8-1.64
			l-22.28-12.92l-89.12-51.68l-89.32-51.34l-22.33-12.83l-5.58-3.21l-2.79-1.6l-1.4-0.8l-1.52-0.81c-4.13-2.05-8.78-3.04-13.38-2.85
			c-4.6,0.17-9.17,1.57-13.08,3.88L474.33,211L452.1,224l-88.92,52.04l-44.37,26.18l-22.18,13.09l-22.14,13.16l22.47-12.59
			l22.43-12.66l44.86-25.33l89.53-50.98l22.38-12.75l11.17-6.41c3.48-2.04,7.37-3.2,11.36-3.34c3.98-0.15,7.98,0.72,11.53,2.5
			l1.31,0.71l1.39,0.81l2.79,1.62l5.57,3.23l22.28,12.92l89.12,51.68l89.32,51.34l22.33,12.84c0.92,0.53,1.89,1.07,2.76,1.6
			c0.86,0.51,1.67,1.07,2.46,1.67c1.57,1.22,2.99,2.63,4.2,4.21c2.43,3.14,4.06,6.91,4.68,10.84c0.33,1.96,0.32,3.92,0.32,6.13
			l0.01,6.44l0.04,12.88l0.15,25.76l0.61,103.02l0.49,51.51l0.25,25.76l0.33,25.76l0.33-25.76l0.25-25.76l0.49-51.51l0.61-103.02
			l0.15-25.76l0.04-12.88l0.01-6.44C762.49,365.4,762.53,364.41,762.48,363.22z"/>
		<linearGradient id="SVGID_12_" gradientUnits="userSpaceOnUse" x1="340.8426" y1="167.9814" x2="883.3203" y2="489.2665">
			<stop  offset="0" style="stop-color:#5FBF91"/>
			<stop  offset="0.5" style="stop-color:#5FBF91;stop-opacity:0"/>
			<stop  offset="1" style="stop-color:#5FBF91"/>
		</linearGradient>
		<path class="st12" d="M791.13,338.94c-1.1-3.79-3.06-7.31-5.6-10.33c-1.29-1.49-2.74-2.86-4.31-4.07l-1.2-0.88l-1.25-0.8
			c-0.84-0.53-1.57-0.93-2.36-1.4l-9.3-5.48l-18.63-10.9l-37.27-21.78l-74.68-43.32l-74.85-43.02l-37.5-21.38l-9.38-5.35
			c-0.74-0.44-1.64-0.91-2.52-1.37c-0.91-0.41-1.81-0.84-2.75-1.16c-1.87-0.68-3.81-1.2-5.78-1.45c-1.97-0.27-3.97-0.34-5.95-0.21
			c-1.98,0.16-3.94,0.51-5.85,1.05c-1.91,0.53-3.75,1.32-5.5,2.24c-0.91,0.48-1.66,0.93-2.43,1.39l-2.32,1.37
			c-24.81,14.58-49.56,29.27-74.29,43.99l-37.02,22.22l-18.51,11.11l-12.97,7.89c-1.13-1.85-3.15-3.08-5.47-3.08
			c-3.54,0-6.41,2.87-6.41,6.41s2.87,6.41,6.41,6.41c3.54,0,6.41-2.87,6.41-6.41c0-1.12-0.29-2.16-0.79-3.08l13.31-7.29l18.88-10.47
			L409,218.86c25.11-14.06,50.21-28.15,75.24-42.34l2.35-1.33c0.78-0.45,1.58-0.9,2.27-1.25c1.44-0.73,2.94-1.35,4.51-1.74
			c1.56-0.41,3.16-0.67,4.76-0.77c1.61-0.08,3.22,0.01,4.81,0.26c1.59,0.23,3.15,0.67,4.65,1.23c0.76,0.26,1.48,0.62,2.2,0.96
			c0.7,0.38,1.4,0.75,2.2,1.23l9.32,5.45l37.27,21.78l74.68,43.32l74.86,43.01l37.5,21.38l18.75,10.68l9.39,5.31
			c0.76,0.44,1.61,0.9,2.3,1.32l1.03,0.63l0.99,0.7c1.3,0.97,2.5,2.06,3.58,3.27c2.13,2.44,3.8,5.31,4.76,8.42
			c0.49,1.55,0.84,3.15,0.98,4.78c0.06,0.4,0.07,0.81,0.08,1.22c0.02,0.41,0.04,0.8,0.04,1.27l0.02,2.7l0.22,21.58l0.54,43.17
			l0.73,43.17l0.37,21.58l0.49,21.58l0.49-21.58l0.37-21.58l0.73-43.17l0.54-43.17l0.22-21.58l0.02-2.7c-0.01-0.9,0-1.94-0.09-2.9
			C792.07,342.77,791.69,340.83,791.13,338.94z"/>
		<linearGradient id="SVGID_13_" gradientUnits="userSpaceOnUse" x1="380.1997" y1="133.4927" x2="884.1125" y2="431.9376">
			<stop  offset="0" style="stop-color:#5FBF91"/>
			<stop  offset="0.5" style="stop-color:#5FBF91;stop-opacity:0"/>
			<stop  offset="1" style="stop-color:#5FBF91"/>
		</linearGradient>
		<path class="st13" d="M816,391c-0.29,0-0.57,0.02-0.84,0.06l0.19-10.52l0.25-17.9l0.24-17.9l0.12-8.95
			c0.01-1.5,0.07-2.95,0.01-4.53c-0.07-1.55-0.25-3.1-0.6-4.61c-1.3-6.09-4.89-11.64-9.84-15.46c-1.23-0.94-2.61-1.8-3.88-2.53
			l-3.86-2.27l-7.72-4.54l-30.86-18.16c-41.15-24.22-82.47-48.14-123.79-72.06l-62.08-35.71l-31.09-17.77l-15.55-8.88l-7.79-4.41
			l-3.9-2.21l-1.97-1.1c-0.71-0.37-1.4-0.75-2.14-1.06c-5.8-2.63-12.51-3.05-18.59-1.32c-1.52,0.44-3,1-4.42,1.69
			c-0.71,0.34-1.4,0.74-2.08,1.11l-1.93,1.14l-7.72,4.54l-30.86,18.17l-30.77,18.33l-15.38,9.17l-9.91,5.97
			c-1.13-1.81-3.14-3.02-5.43-3.02c-3.54,0-6.41,2.87-6.41,6.41c0,3.54,2.87,6.41,6.41,6.41s6.41-2.87,6.41-6.41
			c0-1.17-0.32-2.26-0.86-3.2l10.12-5.6l15.63-8.74l31.26-17.48l31.17-17.64l7.79-4.41l1.95-1.1c0.64-0.34,1.24-0.68,1.89-0.97
			c1.27-0.59,2.6-1.07,3.96-1.44c5.42-1.44,11.34-0.96,16.39,1.43c0.64,0.27,1.24,0.63,1.86,0.96l1.92,1.12l3.86,2.27l7.72,4.54
			l15.46,9.02l30.93,18.04l61.97,35.91c41.38,23.83,82.75,47.65,124.3,71.18l31.16,17.65l7.79,4.41l3.9,2.21
			c1.33,0.74,2.5,1.44,3.66,2.29c4.56,3.39,7.92,8.41,9.24,13.98c0.36,1.39,0.56,2.81,0.67,4.24c0.09,1.41,0.08,2.94,0.11,4.42
			l0.12,8.95l0.24,17.9l0.25,17.9l0.19,10.56c-3.34,0.53-5.89,3.42-5.89,6.9c0,3.87,3.13,7,7,7s7-3.13,7-7
			C823,394.13,819.87,391,816,391z"/>
	</g>
	<g>
		<linearGradient id="SVGID_14_" gradientUnits="userSpaceOnUse" x1="658.0748" y1="831.2826" x2="118.8251" y2="512.4113">
			<stop  offset="0" style="stop-color:#5FBF91"/>
			<stop  offset="0.5" style="stop-color:#5FBF91;stop-opacity:0"/>
			<stop  offset="1" style="stop-color:#5FBF91"/>
		</linearGradient>
		<path class="st14" d="M665.77,732.37c-3.54,0-6.41,2.87-6.41,6.41c0,1.25,0.36,2.41,0.98,3.4l-13.51,7.39l-18.88,10.47
			l-37.75,20.95c-25.11,14.06-50.21,28.15-75.24,42.34l-2.35,1.33c-0.78,0.45-1.58,0.9-2.27,1.25c-1.44,0.73-2.94,1.35-4.51,1.75
			c-1.56,0.41-3.16,0.67-4.76,0.77c-1.61,0.08-3.22-0.01-4.81-0.26c-1.59-0.23-3.15-0.67-4.65-1.23c-0.76-0.26-1.48-0.62-2.2-0.96
			c-0.7-0.38-1.4-0.75-2.2-1.23l-9.32-5.45l-37.27-21.78l-74.68-43.32l-74.86-43.01l-37.5-21.38l-18.75-10.68l-9.39-5.31
			c-0.76-0.44-1.61-0.9-2.3-1.32l-1.03-0.63l-0.99-0.7c-1.3-0.97-2.5-2.06-3.58-3.27c-2.13-2.44-3.8-5.31-4.76-8.42
			c-0.49-1.55-0.84-3.15-0.98-4.78c-0.06-0.4-0.07-0.81-0.08-1.22c-0.02-0.41-0.04-0.8-0.04-1.27l-0.02-2.7l-0.22-21.58l-0.54-43.17
			l-0.73-43.17l-0.37-21.58l-0.49-21.58l-0.49,21.58l-0.37,21.58l-0.73,43.17l-0.54,43.17l-0.22,21.58l-0.02,2.7
			c0.01,0.9,0,1.94,0.09,2.9c0.13,1.96,0.52,3.91,1.08,5.79c1.1,3.79,3.06,7.31,5.6,10.33c1.29,1.49,2.74,2.86,4.31,4.07l1.2,0.88
			l1.25,0.8c0.84,0.53,1.57,0.93,2.36,1.4l9.3,5.48l18.63,10.9l37.27,21.78l74.68,43.32l74.85,43.02l37.5,21.38l9.38,5.35
			c0.74,0.44,1.63,0.91,2.52,1.37c0.91,0.41,1.81,0.84,2.75,1.16c1.87,0.68,3.81,1.2,5.78,1.45c1.97,0.27,3.97,0.34,5.95,0.21
			c1.98-0.16,3.94-0.51,5.85-1.05c1.91-0.53,3.75-1.32,5.5-2.24c0.91-0.48,1.66-0.93,2.43-1.39l2.32-1.37
			c24.81-14.58,49.56-29.27,74.29-43.99l37.02-22.22l18.51-11.11l13.17-8.01c1.16,1.68,3.09,2.78,5.28,2.78
			c3.54,0,6.41-2.87,6.41-6.41C672.19,735.24,669.32,732.37,665.77,732.37z"/>
		<linearGradient id="SVGID_15_" gradientUnits="userSpaceOnUse" x1="618.7269" y1="866.4584" x2="116.2359" y2="569.3232">
			<stop  offset="0" style="stop-color:#5FBF91"/>
			<stop  offset="0.5" style="stop-color:#5FBF91;stop-opacity:0"/>
			<stop  offset="1" style="stop-color:#5FBF91"/>
		</linearGradient>
		<path class="st15" d="M614.98,791.46c-3.54,0-6.41,2.87-6.41,6.41c0,1.02,0.24,1.98,0.66,2.83l-10,5.53l-15.71,8.78l-31.42,17.57
			l-31.33,17.73l-7.83,4.43c-1.34,0.76-2.53,1.42-3.85,1.96c-1.31,0.53-2.65,0.98-4.03,1.27c-5.51,1.26-11.42,0.45-16.39-2.15
			l-62.1-36.25l-62.29-36.1c-41.59-23.95-83.18-47.9-124.95-71.55l-31.32-17.74l-7.83-4.43c-1.3-0.74-2.64-1.48-3.82-2.22
			c-1.17-0.81-2.33-1.65-3.36-2.65c-2.11-1.93-3.81-4.29-5.13-6.83c-1.26-2.57-2.15-5.34-2.47-8.2c-0.21-1.43-0.19-2.85-0.22-4.38
			l-0.06-4.5l-0.12-9l-0.24-18l-0.25-18l-0.2-11.02c3.72-0.16,6.69-3.22,6.69-6.98c0-3.87-3.13-7-7-7s-7,3.13-7,7c0,3.87,3.13,7,7,7
			c0.02,0,0.04,0,0.06,0l-0.2,11l-0.25,18l-0.24,18l-0.12,9l-0.06,4.5c-0.01,1.47-0.07,3.06,0.11,4.61c0.26,3.12,1.2,6.16,2.53,8.99
			c1.4,2.8,3.22,5.41,5.5,7.58c1.11,1.11,2.37,2.07,3.65,2.98c1.34,0.88,2.62,1.61,3.92,2.37l7.76,4.56l31.02,18.26
			c41.36,24.34,82.9,48.39,124.44,72.43l62.4,35.9l31.25,17.86l15.63,8.93l7.83,4.43l3.92,2.22c1.33,0.74,2.55,1.48,4.01,2.22
			c5.71,2.87,12.43,3.66,18.61,2.13c1.55-0.35,3.05-0.89,4.51-1.51c1.45-0.62,2.88-1.44,4.13-2.19l7.76-4.56l31.02-18.27
			l30.93-18.42l15.46-9.21l9.78-5.89c1.08,2,3.2,3.36,5.64,3.36c3.54,0,6.41-2.87,6.41-6.41
			C621.4,794.33,618.53,791.46,614.98,791.46z"/>
		<linearGradient id="SVGID_16_" gradientUnits="userSpaceOnUse" x1="696.0997" y1="788.0001" x2="113.5417" y2="443.5194">
			<stop  offset="0" style="stop-color:#5FBF91"/>
			<stop  offset="0.5" style="stop-color:#5FBF91;stop-opacity:0"/>
			<stop  offset="1" style="stop-color:#5FBF91"/>
		</linearGradient>
		<path class="st16" d="M698.77,685.96l-22.32,12.6l-44.63,25.2l-89.08,50.73l-22.27,12.68l-5.56,3.19l-2.78,1.6
			c-0.47,0.28-0.91,0.51-1.35,0.74c-0.43,0.24-0.88,0.46-1.33,0.65c-3.61,1.63-7.63,2.34-11.57,2.05c-1.97-0.15-3.93-0.53-5.8-1.17
			c-0.93-0.33-1.85-0.69-2.74-1.12c-0.89-0.44-1.73-0.91-2.68-1.46l-11.08-6.43l-22.17-12.86l-88.68-51.42l-88.87-51.08
			l-22.22-12.77l-1.37-0.8L251,655.5l-1.21-0.86l-1.15-0.94c-1.49-1.3-2.82-2.78-3.94-4.41c-2.25-3.25-3.68-7.07-4.1-11
			c-0.12-1-0.14-1.94-0.15-3l-0.01-3.2l-0.01-6.41l-0.04-12.81l-0.15-25.63l-0.61-102.51l-0.49-51.25l-0.25-25.63l-0.33-25.63
			l-0.33,25.63L238,433.48l-0.49,51.25l-0.61,102.51l-0.15,25.63l-0.04,12.81l-0.01,6.41l-0.01,3.2c0.01,1.08,0.02,2.27,0.16,3.4
			c0.47,4.56,2.11,8.99,4.71,12.77c1.3,1.89,2.83,3.62,4.56,5.14l1.33,1.1l1.4,1.01l1.46,0.92l1.39,0.82l22.17,12.86l88.67,51.42
			l88.87,51.09l22.22,12.77l11.11,6.39c0.89,0.52,1.92,1.09,2.95,1.59c1.04,0.49,2.1,0.91,3.19,1.29c2.18,0.73,4.45,1.17,6.73,1.33
			c4.57,0.32,9.22-0.52,13.39-2.42c0.53-0.23,1.04-0.48,1.54-0.76c0.51-0.27,1.01-0.54,1.46-0.81l2.77-1.61l5.54-3.22l22.12-12.94
			l88.47-51.78l44.14-26.05l22.07-13.03l22.03-13.1L698.77,685.96z"/>
	</g>
</g>
</svg>
