<svg width="1600" height="902" viewBox="0 0 1600 902" fill="none" xmlns="http://www.w3.org/2000/svg">
<g opacity="1" clip-path="url(#clip0_5_5)">
<path d="M156.634 1426.87C-106.81 1475.14 -361.165 1372.39 -400 1297.16V547.503C-252.498 520.478 -117.198 731.683 241.797 747.555C491.945 758.615 562.413 967.745 816.828 1032.6C1133.12 1113.22 1386.41 1136.35 1600 1297.19V1984.6C1386.41 1823.77 1085.44 1675.9 816.828 1662.93C561.607 1650.61 442.857 1374.43 156.634 1426.87Z" fill="url(#paint0_linear_5_5)"/>
<path d="M557.633 952.097C346.199 894.773 127.86 1037.65 0 794.148V-156.791C118.002 -191.072 257.309 168.938 536.921 201.844C793.694 232.062 902.968 665.816 1106.5 748.081C1359.54 850.354 1429.13 590.162 1600 794.177V1666.15C1378.34 1360.13 1245.99 1576.4 1057.31 1485.17C819.122 1370 788.236 1014.62 557.633 952.097Z" fill="url(#paint1_linear_5_5)"/>
<path d="M669.972 561.318C415.943 507.125 153.618 642.201 0 411.995V-487.014C141.774 -519.423 309.146 -179.073 645.087 -147.964C953.589 -119.395 1084.88 290.671 1329.41 368.443C1633.42 465.131 1717.03 219.148 1922.33 412.023V1236.38C1656.02 947.067 1497 1151.53 1270.31 1065.28C984.139 956.4 947.031 620.425 669.972 561.318Z" fill="url(#paint2_linear_5_5)"/>
<path d="M156.634 1425.57C-106.81 1473.84 -361.165 1371.1 -400 1295.87V546.208C-252.498 519.183 -117.198 730.388 241.797 746.261C491.945 757.32 562.413 966.451 816.828 1031.3C1133.12 1111.93 1386.41 1135.06 1600 1295.89V1983.31C1386.41 1822.47 1085.44 1674.61 816.828 1661.64C561.607 1649.31 442.857 1373.13 156.634 1425.57Z" fill="url(#paint3_linear_5_5)"/>
<path d="M329.088 580.13C71.2965 502.194 -194.916 696.448 -350.809 365.387V-927.486C-206.935 -974.093 -37.0832 -484.633 303.835 -439.894C616.907 -398.81 750.14 190.911 998.298 302.755C1306.81 441.803 1391.66 88.0521 1600 365.427V1550.94C1329.75 1134.88 1168.37 1428.92 938.321 1304.88C647.91 1148.3 610.252 665.132 329.088 580.13Z" fill="url(#paint4_linear_5_5)"/>
<path d="M700.999 867.773C379.743 814.799 47.9937 946.835 -146.278 721.81V-156.966C33.0155 -188.645 244.682 144.045 669.529 174.454C1059.67 202.379 1225.71 603.217 1534.96 679.239C1919.43 773.751 2025.16 533.304 2284.79 721.837V1527.64C1948 1244.84 1746.89 1444.7 1460.22 1360.39C1098.31 1253.96 1051.38 925.549 700.999 867.773Z" fill="url(#paint5_linear_5_5)"/>
<path d="M212.708 71.523C-68.6908 25.5013 -359.281 140.21 -529.45 -55.2839V-818.733C-372.401 -846.255 -186.995 -557.226 185.142 -530.807C526.883 -506.547 672.316 -158.313 943.198 -92.2685C1279.97 -10.1597 1372.58 -219.052 1600 -55.2604V644.794C1305 399.106 1128.84 572.737 877.73 499.494C560.724 407.031 519.618 121.717 212.708 71.523Z" fill="url(#paint6_linear_5_5)"/>
<path d="M557.633 366.695C346.199 330.756 127.86 420.334 0 267.669V-328.523C118.002 -350.015 257.309 -124.307 536.921 -103.676C793.694 -84.7306 902.968 187.212 1106.5 238.787C1359.54 302.908 1429.13 139.78 1600 267.688V814.373C1378.34 622.511 1245.99 758.103 1057.31 700.906C819.122 628.7 788.236 405.893 557.633 366.695Z" fill="url(#paint7_linear_5_5)"/>
</g>
<defs>
<linearGradient id="paint0_linear_5_5" x1="600" y1="1297.19" x2="600" y2="1984.63" gradientUnits="userSpaceOnUse">
<stop stop-color="#1E2B45"/>
<stop offset="1" stop-color="#0D172C"/>
</linearGradient>
<linearGradient id="paint1_linear_5_5" x1="800" y1="794.185" x2="800" y2="1666.19" gradientUnits="userSpaceOnUse">
<stop stop-color="#1E2B45"/>
<stop offset="1" stop-color="#0D172C"/>
</linearGradient>
<linearGradient id="paint2_linear_5_5" x1="961.165" y1="412.029" x2="961.165" y2="1236.41" gradientUnits="userSpaceOnUse">
<stop stop-color="#1E2B45"/>
<stop offset="1" stop-color="#0D172C"/>
</linearGradient>
<linearGradient id="paint3_linear_5_5" x1="600" y1="1295.9" x2="600" y2="1983.33" gradientUnits="userSpaceOnUse">
<stop stop-color="#1E2B45"/>
<stop offset="1" stop-color="#0D172C"/>
</linearGradient>
<linearGradient id="paint4_linear_5_5" x1="624.596" y1="365.437" x2="624.596" y2="1550.99" gradientUnits="userSpaceOnUse">
<stop stop-color="#1E2B45"/>
<stop offset="1" stop-color="#0D172C"/>
</linearGradient>
<linearGradient id="paint5_linear_5_5" x1="1069.26" y1="721.844" x2="1069.26" y2="1527.67" gradientUnits="userSpaceOnUse">
<stop stop-color="#1E2B45"/>
<stop offset="1" stop-color="#0D172C"/>
</linearGradient>
<linearGradient id="paint6_linear_5_5" x1="535.276" y1="-55.2547" x2="535.276" y2="644.822" gradientUnits="userSpaceOnUse">
<stop stop-color="#1E2B45"/>
<stop offset="1" stop-color="#0D172C"/>
</linearGradient>
<linearGradient id="paint7_linear_5_5" x1="800" y1="267.692" x2="800" y2="814.395" gradientUnits="userSpaceOnUse">
<stop stop-color="#1E2B45"/>
<stop offset="1" stop-color="#0D172C"/>
</linearGradient>
<clipPath id="clip0_5_5">
<rect width="1600" height="2517.8" fill="white" transform="translate(0 -533.2)"/>
</clipPath>
</defs>
</svg>
